<svg width="250" height="59" viewBox="0 0 250 59" fill="none" xmlns="http://www.w3.org/2000/svg">
<path d="M235.301 47.768C231.973 47.768 229.157 47.1493 226.853 45.912C224.592 44.632 222.864 42.6907 221.669 40.088C220.517 37.4853 219.941 34.1787 219.941 30.168C219.941 26.1147 220.517 22.808 221.669 20.248C222.864 17.6453 224.613 15.7253 226.917 14.488C229.221 13.208 232.101 12.568 235.557 12.568C238.714 12.568 241.36 13.1867 243.493 14.424C245.626 15.6187 247.226 17.432 248.293 19.864C249.402 22.2533 249.957 25.2613 249.957 28.888V31.576H225.765C225.85 34.264 226.234 36.4827 226.917 38.232C227.642 39.9387 228.709 41.1973 230.117 42.008C231.525 42.776 233.296 43.16 235.429 43.16C236.88 43.16 238.138 42.9893 239.205 42.648C240.314 42.264 241.232 41.7307 241.957 41.048C242.725 40.3653 243.301 39.5547 243.685 38.616C244.069 37.6773 244.282 36.6533 244.325 35.544H249.829C249.786 37.336 249.445 39 248.805 40.536C248.165 42.0293 247.226 43.3093 245.989 44.376C244.752 45.4427 243.237 46.2747 241.445 46.872C239.653 47.4693 237.605 47.768 235.301 47.768ZM225.893 27.352H244.133C244.133 25.4747 243.92 23.896 243.493 22.616C243.066 21.336 242.448 20.2907 241.637 19.48C240.869 18.6693 239.952 18.0933 238.885 17.752C237.861 17.368 236.688 17.176 235.365 17.176C233.402 17.176 231.738 17.5387 230.373 18.264C229.008 18.9893 227.962 20.0987 227.237 21.592C226.512 23.0853 226.064 25.0053 225.893 27.352Z" fill="#0B004D"/>
<path d="M203.394 47.768C200.151 47.768 197.42 47.1493 195.201 45.912C193.026 44.632 191.361 42.6907 190.209 40.088C189.1 37.4427 188.546 34.136 188.546 30.168C188.546 26.2 189.1 22.9147 190.209 20.312C191.361 17.7093 193.047 15.768 195.265 14.488C197.527 13.208 200.3 12.568 203.585 12.568C205.889 12.568 207.873 12.8667 209.537 13.464C211.244 14.0613 212.652 14.936 213.761 16.088C214.871 17.24 215.681 18.6267 216.193 20.248C216.748 21.8693 217.025 23.7253 217.025 25.816H211.329C211.329 23.8533 211.052 22.2533 210.497 21.016C209.985 19.736 209.153 18.7973 208.001 18.2C206.849 17.56 205.335 17.24 203.457 17.24C201.58 17.24 199.959 17.6667 198.593 18.52C197.228 19.3307 196.183 20.632 195.457 22.424C194.732 24.216 194.369 26.584 194.369 29.528V30.872C194.369 33.6453 194.711 35.9493 195.394 37.784C196.119 39.6187 197.164 40.9627 198.529 41.816C199.895 42.6693 201.559 43.096 203.521 43.096C205.441 43.096 206.978 42.7547 208.13 42.072C209.324 41.3893 210.177 40.408 210.689 39.128C211.244 37.848 211.521 36.312 211.521 34.52H217.025C217.025 36.3973 216.748 38.1467 216.193 39.768C215.681 41.3893 214.871 42.7973 213.761 43.992C212.652 45.1867 211.244 46.1253 209.537 46.808C207.831 47.448 205.783 47.768 203.394 47.768Z" fill="#0B004D"/>
<path d="M178.139 7V0.727997H183.771V7H178.139ZM178.139 47V13.336H183.771V47H178.139Z" fill="#0B004D"/>
<path d="M158.809 47V13.336H163.353L163.865 18.904H164.312C164.654 17.8373 165.123 16.8347 165.721 15.896C166.318 14.9147 167.129 14.1253 168.153 13.528C169.177 12.888 170.435 12.568 171.929 12.568C172.569 12.568 173.145 12.632 173.657 12.76C174.211 12.8453 174.617 12.952 174.873 13.08V18.264H172.761C171.31 18.264 170.051 18.52 168.985 19.032C167.961 19.5013 167.107 20.184 166.425 21.08C165.742 21.976 165.23 23.0427 164.889 24.28C164.59 25.5173 164.441 26.84 164.441 28.248V47H158.809Z" fill="#0B004D"/>
<path d="M124.416 58.072V13.336H128.896L129.472 18.136H129.92C131.072 16.2587 132.544 14.872 134.336 13.976C136.128 13.0373 138.155 12.568 140.416 12.568C143.232 12.568 145.621 13.1867 147.584 14.424C149.547 15.6613 151.061 17.6027 152.128 20.248C153.195 22.8507 153.728 26.2427 153.728 30.424C153.728 34.3493 153.173 37.6133 152.064 40.216C150.997 42.776 149.483 44.6747 147.52 45.912C145.557 47.1493 143.275 47.768 140.672 47.768C139.221 47.768 137.856 47.5973 136.576 47.256C135.296 46.9147 134.144 46.3813 133.12 45.656C132.096 44.888 131.2 43.928 130.432 42.776H130.048V58.072H124.416ZM138.88 42.84C140.971 42.84 142.677 42.4347 144 41.624C145.323 40.7707 146.304 39.4693 146.944 37.72C147.584 35.928 147.904 33.6453 147.904 30.872V29.528C147.904 26.584 147.563 24.2373 146.88 22.488C146.197 20.696 145.195 19.416 143.872 18.648C142.592 17.88 140.992 17.496 139.072 17.496C136.981 17.496 135.253 17.9653 133.888 18.904C132.565 19.8 131.584 21.1653 130.944 23C130.347 24.8347 130.048 27.0747 130.048 29.72V30.68C130.048 33.0267 130.261 34.9893 130.688 36.568C131.157 38.104 131.797 39.3413 132.608 40.28C133.461 41.2187 134.421 41.88 135.488 42.264C136.555 42.648 137.685 42.84 138.88 42.84Z" fill="#0B004D"/>
<path d="M80.1355 47.04C78.3862 47.04 77.0208 46.72 76.0395 46.08C75.0582 45.3973 74.3542 44.5227 73.9275 43.456C73.5008 42.3467 73.2875 41.1734 73.2875 39.936V17.344H68.9355V12.608H73.4155L74.4395 3.20001H78.9195V12.608H85.2555V17.344H78.9195V39.104C78.9195 40.1707 79.1115 40.9813 79.4955 41.536C79.8795 42.048 80.6048 42.304 81.6715 42.304H85.2555V46.016C84.8288 46.2293 84.3168 46.4 83.7195 46.528C83.1222 46.656 82.5035 46.7627 81.8635 46.848C81.2662 46.976 80.6902 47.04 80.1355 47.04Z" fill="#EE00AB"/>
<path d="M54.796 48.04C51.5533 48.04 48.8227 47.4213 46.604 46.184C44.428 44.904 42.764 42.9627 41.612 40.36C40.5027 37.7147 39.948 34.408 39.948 30.44C39.948 26.472 40.5027 23.1867 41.612 20.584C42.764 17.9813 44.4493 16.04 46.668 14.76C48.9293 13.48 51.7027 12.84 54.988 12.84C57.292 12.84 59.276 13.1387 60.94 13.736C62.6467 14.3333 64.0547 15.208 65.164 16.36C66.2733 17.512 67.084 18.8987 67.596 20.52C68.1507 22.1413 68.428 23.9973 68.428 26.088H62.732C62.732 24.1253 62.4547 22.5253 61.9 21.288C61.388 20.008 60.556 19.0693 59.404 18.472C58.252 17.832 56.7373 17.512 54.86 17.512C52.9827 17.512 51.3613 17.9387 49.996 18.792C48.6307 19.6027 47.5853 20.904 46.86 22.696C46.1347 24.488 45.772 26.856 45.772 29.8V31.144C45.772 33.9173 46.1133 36.2213 46.796 38.056C47.5213 39.8907 48.5667 41.2347 49.932 42.088C51.2973 42.9413 52.9613 43.368 54.924 43.368C56.844 43.368 58.38 43.0267 59.532 42.344C60.7267 41.6613 61.58 40.68 62.092 39.4C62.6467 38.12 62.924 36.584 62.924 34.792H68.428C68.428 36.6693 68.1507 38.4187 67.596 40.04C67.084 41.6613 66.2733 43.0693 65.164 44.264C64.0547 45.4587 62.6467 46.3973 60.94 47.08C59.2333 47.72 57.1853 48.04 54.796 48.04Z" fill="#EE00AB"/>
<circle cx="18.5" cy="28.772" r="15.5" fill="white" stroke="#EE00AB" stroke-width="6"/>
<circle cx="102.5" cy="28.772" r="15.5" fill="white" stroke="#EE00AB" stroke-width="6"/>
<circle cx="101" cy="29.272" r="10" fill="#0B004D"/>
<circle cx="95.6667" cy="23.9387" r="2" fill="white"/>
<circle cx="20" cy="29.272" r="10" fill="#0B004D"/>
<circle cx="15.6667" cy="23.9387" r="2" fill="white"/>
</svg>
