<?xml version="1.0" standalone="no"?>
<!DOCTYPE svg PUBLIC "-//W3C//DTD SVG 20010904//EN"
 "http://www.w3.org/TR/2001/REC-SVG-20010904/DTD/svg10.dtd">
<svg version="1.0" xmlns="http://www.w3.org/2000/svg"
 width="700.000000pt" height="700.000000pt" viewBox="0 0 700.000000 700.000000"
 preserveAspectRatio="xMidYMid meet">
<metadata>
Created by potrace 1.14, written by Peter Selinger 2001-2017
</metadata>
<g transform="translate(0.000000,700.000000) scale(0.100000,-0.100000)"
fill="#000000" stroke="none">
<path d="M3305 6994 c-527 -40 -940 -151 -1375 -369 -768 -385 -1363 -1036
-1683 -1840 -326 -818 -326 -1751 0 -2570 453 -1141 1472 -1966 2673 -2164
218 -36 339 -45 580 -45 469 0 866 74 1285 241 1044 414 1825 1300 2106 2391
70 274 103 547 103 862 0 577 -119 1076 -379 1589 -333 658 -873 1195 -1535
1531 -384 194 -749 304 -1185 356 -118 14 -492 26 -590 18z m480 -1145 c322
-37 676 -161 955 -334 615 -382 1022 -1018 1111 -1740 16 -129 16 -421 0 -550
-128 -1034 -903 -1862 -1917 -2050 -414 -77 -859 -41 -1241 101 -842 310
-1434 1057 -1544 1949 -16 129 -16 421 0 550 100 809 599 1508 1326 1856 414
198 851 271 1310 218z"/>
<path d="M3605 5289 c-750 -77 -1379 -578 -1614 -1284 -158 -474 -124 -987 95
-1431 274 -560 801 -944 1425 -1040 138 -21 410 -21 549 0 280 43 546 147 781
305 784 526 1058 1568 634 2410 -273 544 -779 919 -1375 1020 -143 25 -367 34
-495 20z m-483 -531 c73 -34 146 -106 184 -183 26 -54 29 -70 29 -160 0 -87
-3 -107 -26 -155 -39 -82 -99 -144 -177 -182 -62 -31 -74 -33 -167 -33 -87 0
-107 3 -157 27 -76 35 -138 95 -179 170 -33 60 -34 68 -34 168 0 93 3 112 26
161 47 99 128 171 232 205 68 22 200 13 269 -18z"/>
</g>
</svg>
