<svg width="516" height="159" viewBox="0 0 516 159" fill="none" xmlns="http://www.w3.org/2000/svg">
<path d="M317.4 73.1C317.2 74.4 316.4 75.4 315.6 76.3C315.3 76.6 314.2 76.3 314.6 77C313.9 77.7 313.4 78.2 312.8 78.7C312.4 79 311.9 79.2 311.5 79.4C311 79.6 310.5 79.9 309.9 80.1C310.1 80.2 310.3 80.3 310.7 80.5C310.4 80.6 310.2 80.8 309.9 80.8C308.3 81.1 307.4 82.4 306.2 83.3C304.8 84.3 303.3 85.2 301.9 86C301.2 86.4 300.4 86.6 299.8 87.1C299.2 87.6 298.9 88.5 298.4 89.1C298.1 89.4 297.7 89.6 297.1 90C297.1 90.1 297.2 90.4 297.2 90.8C296.7 89.9 296 89.3 295.8 88.5C295.6 87.8 295.9 87 296.1 86.3C296.1 86.2 296.5 86 296.5 85.9C295.7 84.4 297.3 83.5 297.3 82.1C297.3 81.3 297.6 80.4 297.5 79.4C297.9 79.3 298.3 79.3 298.8 79.2C298.2 78.5 297.6 77.8 297 77C296.8 77.1 296.6 77.2 296.3 77.3C296.6 77.4 296.8 77.5 296.8 77.5C296.6 78 296.4 78.5 296.1 78.8C295.5 79.6 294.8 80.3 294.1 80.9C293.3 81.7 292.4 83.1 291.5 83.2C289.9 83.4 290 85 288.9 85.4C288.8 85.4 288.9 85.7 288.8 85.9C287.9 85.5 286.7 86.3 286.4 87.2C285.6 87.3 284.9 87.5 284.2 87.6C284.3 87.7 284.4 87.8 284.4 87.9C283.8 88.3 283.1 88.8 282.3 89.3C281.8 89.4 280.9 89.5 280.1 89.7C280.1 89.6 280.1 89.6 280.1 89.5C280.3 89.4 280.5 89.3 281 89C280.4 89 280.1 89 279.7 89C279.7 89.3 279.6 89.5 279.6 89.8C279.5 89.7 279.4 89.7 279.4 89.7C279.3 88.8 277.7 88.7 278.2 87.5C278 87.5 277.7 87.4 277.5 87.4C277.7 86.8 277.9 86.1 278.1 85.4C278 85.4 277.9 85.3 277.9 85.3C277.7 85.4 277.5 85.6 277.3 85.7C277.6 84.6 277.8 83.5 278.1 82.4C277.8 82.4 277.6 82.5 277.4 82.5C277.6 81.9 277.9 81.4 278.2 80.6C277.5 79.5 278.8 78.1 278.6 76.7C279 76.8 279.2 76.9 279.6 77C279.2 76.1 280.5 75.3 279.6 74.5C279.6 74.5 279.8 74.2 280 74.1C280.9 73.8 280.8 72.9 281 72.2C281.2 71.3 281.6 70.5 281.9 69.6C282.1 69.1 282.1 68.6 282.2 68C282.1 68 281.9 67.9 281.8 67.9C281.7 68.1 281.7 68.3 281.6 68.5C281.3 67.2 281 67.1 279.2 67.6C277.6 70.6 275.1 72.8 273.4 75.4C273.3 75.2 273.3 75.1 273.2 74.9C272.7 76 272.3 77 271 76.8C270.8 77.3 270.7 77.9 270.4 78.7C270.2 78.2 270.1 78 270.1 77.8C269.8 78.5 269.6 79.1 269.3 79.7C269.2 79.7 269 79.6 268.9 79.5C268.3 80.1 267.8 80.7 267.2 81.4C267 81.5 266.5 81.7 266 82C265.5 82.3 265.3 83.2 264.5 82.8C264.5 82.8 264.1 83.2 264.2 83.4C264.4 84 264 84 263.7 84.3C262.5 85.1 261.5 86.5 260.2 86.9C258.3 87.5 257.9 89.4 256.4 90.1C255.8 90.1 255.3 90.2 254.6 90.2C254.4 90 254.1 89.6 253.9 89.4C254.8 86.9 255.8 84.3 256.8 81.8C256.8 81.8 257 81.9 257.2 82C257.3 81.2 257.4 80.5 257.5 79.6C257.8 79.5 258.2 79.2 258.8 79C258.4 78.8 258.3 78.5 258.5 78.2C259.1 77 259.7 75.8 260.4 74.4C260.6 74.6 260.7 74.7 260.8 74.8C261.4 74.2 262 73.6 262.6 72.9C262.7 72.7 262.4 72.3 262.4 72C262.4 71.6 262.6 71.1 262.7 70.4C262.3 70.3 261.7 70.1 261.2 70C260.6 71.2 259.7 71.9 258.4 72.3C258.3 72.3 258.3 72.4 258.2 72.5C257.2 73.3 256.3 74.2 255.3 74.8C253.9 75.6 252.7 76.6 251.7 77.9C251.5 78.1 250.9 78 250.5 78.2C250 78.5 249.6 78.9 249.1 79.3C248.7 79.6 248.4 79.8 248 80C247.8 80.1 247.4 80.2 247.3 80.3C246.5 81.6 245.2 82 244.1 82.8C243.5 83.3 242.8 83.6 242.2 84.2C242.1 84.3 242 84.6 242 84.6C240.4 84.2 239.6 86.1 238.1 85.9C237.4 85.8 237.8 87.2 236.9 86.6C236.7 87.7 235.6 87.4 235 87.9C234.9 88 234.9 88.2 234.9 88.1C234.4 88.2 233.9 88.1 233.6 88.3C232.2 89 230.9 89.8 229.3 89.4C229.1 89.4 228.8 89.5 228.6 89.5C228 89.6 227.4 89.9 227.1 89.1C227.1 89 226.7 89.2 226.4 89.2C226.4 89.3 226.4 89.5 226.3 89.6C225.5 89 224.7 88.4 224.1 88C223.8 87.2 223.6 86.6 223.3 86C223.5 86.1 223.7 86.1 224.2 86.3C223.9 85.4 223.6 84.7 223.4 83.9C223.2 83.4 222.6 82.7 223.7 82.3C223.9 82.2 223.9 81.3 223.9 80.8C223.9 80.4 223.9 80 224.1 79.8C225 78.2 225.8 76.6 227.1 75.4C227.3 75.2 227.3 74.9 227.4 74.7C227.7 74.2 227.9 73.8 228.3 73.3C228.4 73.2 228.7 73.2 228.7 73.2C229.1 72.7 229.4 72.2 229.8 71.8C230.3 72.5 230.2 71.8 230.4 71.6C231.1 70.9 231.8 70.2 232.4 69.5C232.9 68.9 233.6 68.5 234 67.8C234.2 67.4 234 66.5 233.7 66.3C233.4 66.1 232.7 65.2 232.1 66.3C231.8 66.8 231 66.9 230.4 67.3C230.4 67.3 230.6 67.4 230.9 67.6C230.2 68 229.6 68.5 228.9 68.9C228.2 69.3 227.4 69.8 226.6 70.3C226.6 70.3 226.5 70.1 226.4 70C225.3 70.9 224.3 71.9 223.2 72.8C222.8 73.1 222.3 73.2 221.9 73.5C221.5 73.8 220.6 73.5 220.7 74.7C220.8 75.2 219.6 75.8 219 76.3C217.9 77.2 216.9 78.1 215.8 79C215.6 79.2 215.5 79.5 215.3 79.6C213.5 80.6 212 82 210.5 83.4C209.8 84 208.8 84.3 207.8 84.8C207.7 85.7 205.6 87.4 204.2 87.6C204.1 89 203.1 89.5 202 90C201.9 90.1 201.7 90 201.7 90.1C201 91.1 200.4 92.1 199.6 93C199.4 93.2 199 93.3 198.9 93.3C197.5 94.8 196.2 96.2 194.9 97.6C194.9 97.6 194.8 97.6 194.8 97.5C194.3 98.1 193.8 98.7 193.4 99.3C193 99.8 192.7 100.4 192.4 100.9C192.1 101.3 191.4 101.4 191.8 102.2C191.8 102.2 191.5 102.5 191.3 102.7C190.3 103.3 189.3 103.9 189.2 105.2C189.2 105.5 188.8 105.8 188.5 106.1C188.5 106.1 188.6 106.1 188.9 106.2C186.9 106.6 187.1 108.9 185.5 109.8C185.6 109.9 185.7 110.2 185.8 110.3C185.4 110.8 185.1 111.7 184.7 111.7C183.6 111.7 183.8 112.4 183.6 112.9C183.6 112.9 183.2 112.9 182.8 112.8C183.1 113.3 183.3 113.6 183.6 114C182.9 114.7 181.7 114.7 181.2 115.9C180.6 117.3 179.6 118.4 178.8 119.7C178.4 120.4 178.2 121.3 177.9 122.1C177.9 122.2 177.8 122.3 177.7 122.4C177.3 123.1 176.1 123.3 176.4 124.4C176.4 124.4 176.3 124.5 176.2 124.5C175.9 124.8 175.7 125 175.5 125.3C174.7 126.3 173.9 127.4 173.1 128.4L173 128.3C172.7 128.8 172.3 129.4 172 129.9C171.5 130.6 171 131.4 170.4 132.2C170.4 132.2 170.1 132.1 170 132.1C169.4 133 168.9 133.8 168.3 134.7C168.2 134.7 168.1 134.6 168.1 134.6C168.1 134.4 168.2 134.1 168.2 133.9C166.8 135.2 165.7 136.6 165.3 138.5C165.2 138.3 165 138 164.9 137.8C164.8 137.8 164.7 137.8 164.7 137.9C164.2 139.7 163 141 161.9 142.3C161 143.4 160 144.3 158.9 145.2C158.6 145.5 158 145.6 157.6 145.6C157.3 145.6 157.1 145.1 156.9 144.7C156.4 143.8 156.1 143.1 156.4 142.1C156.6 141.3 156.5 140.4 157.2 139.7C157.4 139.5 157.3 139.1 157.4 138.8C157.6 138.4 157.5 137.6 158.4 138C158.5 138 159 137.3 159 137C159 136.2 159.4 135.6 159.8 134.9C160.1 134.4 160.2 133.8 160.5 133.3C161.2 133.3 161.2 133.3 161.3 131.5C161.6 131.6 162 131.6 162.3 131.7C162.3 131.7 162.4 131.6 162.4 131.5C162.5 131 162.2 130.4 163 130.1C163.2 130 163 129 163 128.4C163.1 128.4 163.5 128.6 164 128.7C164.1 128.3 164.3 127.8 164.5 127.3C165.1 127.3 165.6 127 165.6 126.1C165.6 125.9 166 125.8 166.2 125.6C166.3 125.5 166.4 125.4 166.5 125.3C166.6 125.1 166.6 124.7 166.8 124.7C168.6 123.9 168.8 121.9 170.1 120.7C170.5 120.3 170.8 119.6 171.3 119.3C172.4 118.7 173 118 173.1 117.1C173.8 116.9 174.3 116.8 175.1 116.6C174.5 116.3 174.2 116.2 173.6 115.9C174.3 115.8 174.7 115.8 175.1 115.8C175.5 115.1 175.8 114.4 176.4 113.3C177.1 112.9 178.2 112.4 179.3 111.8C179 111.6 178.7 111.4 178.4 111.2C178.9 110.8 179.3 110.3 179.9 109.8C181.1 110.3 181 108.4 182.1 108.4C182 108 181.9 107.6 181.8 107.3C182.4 107.2 182.9 107 183.5 106.9C183.3 106.6 183.2 106.4 182.9 106C183.4 106.1 183.7 106.1 183.8 106.2C184.2 105.7 184.4 105.4 184.7 105C184.6 104.9 184.5 104.8 184.5 104.8C184.9 104.7 185.4 104.6 185.9 104.6C186 104.3 185.5 103.9 186.4 103.5C187.6 102.9 189.1 102.3 189.5 100.6C189.6 100.3 190 100.1 190.3 99.9C190.2 99.8 190.1 99.6 190 99.4C190.5 99.3 190.9 99.2 191.1 99.2C191.4 98.3 191.6 97.5 191.9 96.5C192.2 96.9 192.3 97.1 192.5 97.4C192.6 95.3 192.6 95.3 194.5 94.9C194.3 94.7 194.1 94.5 194 94.4C195.2 93 196.4 91.7 197.3 90.3C197.6 89.8 197.7 89.3 198.2 89.1C198.3 89.1 198.4 88.9 198.4 88.8C198.4 88.5 198.6 88.4 198.5 88.4C198.9 87.9 199.2 87.5 199.4 87C199.6 86.6 199.7 86.1 199.9 85.8C200.5 84.9 201.3 84.1 201.7 83.1C202.4 81.5 203.9 80.2 204 78.2C204 78 204.4 77.9 204.4 77.7C204.9 76.4 206.5 75.4 205.5 73.6C205.4 73.5 205.8 73 206 72.8C204 72.3 203.1 74.3 201.6 75.1C201.7 75.2 201.7 75.3 201.8 75.3C201.6 75.6 201.2 76.1 201.1 76C200.2 75.7 199.9 76.5 199.5 76.9C198.8 77.7 198.4 78.9 197 78.9C196.8 78.9 196.6 79.5 196.4 79.7C196 80.2 195.6 80.8 195 81C193.8 81.5 192.9 82.4 192.4 83.2C191.7 83.1 190.8 83.2 190.2 82.8C189.5 82.3 189.1 81.5 188.5 80.8C188.4 80.9 188.3 80.9 188.2 81C188.7 81.1 189.1 81.1 189.6 81.2C189.2 80 189.2 80 187.2 79.9C187.2 80.2 187.3 80.4 187.3 80.7C187 80.7 186.7 80.6 186.6 80.6C185.2 81.7 183.8 82.7 182.4 83.7C182.2 83.6 182 83.5 182 83.5C181.4 83.7 180.8 83.7 180.6 83.9C180 84.4 179.1 84.2 178.6 85.1C178 86 176.5 85.6 175.8 86.6C175.4 86.3 174.9 86 174.5 85.6C174.2 85.3 174 84.9 173.9 84.5C173.7 83.8 173.6 83.2 173.5 82.5C173.4 82 173.3 81.5 173.2 81C173.8 80.8 174.3 80.6 173.8 79.7C173.5 79.1 173.6 78.5 174.3 78.1C175 77.6 175.6 77 176.1 76.3C175.9 76.4 175.7 76.5 175.3 76.6C175.7 76 175.9 75.6 176.2 75.2C176.7 74.7 177.3 74.2 177.7 73.7C177.8 73.6 177.6 73.2 177.5 72.8C177.8 72.8 178 72.8 178.3 72.8C178.2 72.7 178.1 72.7 178 72.6C178.3 72.2 178.5 71.7 178.8 71.3C178.9 71.3 179 71.4 179.1 71.4C179 71.1 178.8 70.8 178.7 70.5C178.8 70.4 178.8 70.3 178.9 70.2C179.2 70.4 179.5 70.6 179.8 70.8C179.4 69.3 180.3 67.9 181.2 67.3C182.7 66.2 182.6 64 184.3 63.1C184.4 63 185.3 62.3 185 61.5C185 61.4 185.1 61.2 185.3 61.1C186.3 60.1 186.1 58.8 186.2 57.7C185.2 57.5 184.3 57.3 183.4 57.2C183.2 57.2 183 57.3 182.9 57.4C182.2 58.3 182.1 58.4 181.1 58.3C181 58.3 180.9 58.3 180.9 58.3C180.3 58.7 179.8 59.2 179.2 59.7C178.7 60.1 178.1 60.4 177.6 60.8C177.1 61.2 176.6 61.6 176 62C174.7 62.9 173.3 63.8 172.2 65.1C171.3 66.2 170.3 67.3 169.3 68.2C168.8 68.7 168 68.9 167.3 69.3C167 69.5 166.8 69.9 166.5 70.1C166.6 70.2 166.6 70.3 166.7 70.4C166.3 70.5 165.9 70.6 165.5 70.6C164.9 71.6 164.7 72.9 163.3 73.1C163.2 73.1 163.1 73.2 163 73.3C162.1 74.5 161.2 75.8 160.3 76.9C159.7 77.6 158.9 78 158.3 78.7C157.7 79.3 157.3 80 156.7 80.6C156.3 81 155.8 81.3 155.3 81.6C155.4 81.7 155.5 81.8 155.8 82.1C155.3 82.2 154.8 82.2 154.7 82.3C153.7 83.7 152.7 85 151.6 86.5C151.7 86.5 151.6 86.5 151.4 86.5C150.9 86.6 150.1 86.8 150 86.7C149.7 86.1 149.4 85.3 149.5 84.6C149.6 83.4 150.1 82.3 151.4 81.6C152.1 81.2 152.6 80.2 153.1 79.5C153.5 79 153.9 78.4 154.3 77.7C154.4 77.8 154.2 77.6 154.2 77.6C155.3 76 156.5 74.5 157.5 72.8C158.5 71.2 159.8 69.8 160.6 68.1C161.5 66.4 162.8 64.9 164.1 63.1C163.8 62.8 163.5 62.2 163.1 62C162.6 61.7 161.1 62.6 160.9 63.2C160.8 63.4 160.5 63.6 160.3 63.8C160.1 64 159.2 63.9 159.9 64.6C159.7 64.6 159.3 64.7 159.3 64.7C159 63.7 158.5 64.6 158.4 64.7C157.6 65.6 157.8 67.3 156.2 67.6C155.8 69.4 154 69.8 153.1 71.2C152.5 72.1 152.1 73 151.4 73.8C150.5 74.9 149.8 76.2 148.4 76.9C148.2 77 148.3 77.6 148.3 78.1C148 78.1 147.7 78 147.4 78C147.5 78.1 147.6 78.1 147.7 78.2C147.2 78.9 146.7 79.6 146.2 80.4C146.1 80.1 146.1 80 146 79.7C145.7 80.1 145.4 80.4 145.2 80.8C144.9 81.4 144.8 82 143.9 81.9C143.8 81.9 143.6 82.4 143.4 82.6C142.9 83.6 142.4 84.6 141.1 85C140.6 85.2 140.2 85.9 139.8 86.4C139.7 86.3 139.6 86.2 139.5 86.1C138.1 87.6 136.7 89 135.3 90.5C135.3 90.5 135.3 90.4 135.2 90.4C134.7 90.9 134.2 91.4 133.8 91.9C133.8 92 133.7 92 133.7 92.1C132.9 93.2 132.3 93.2 131.3 91.9C131.1 91.7 130.9 91.5 130.5 91.1C130.7 90.6 129.8 89.5 131.1 89.3C131.1 88.7 130.9 88.2 131.1 87.8C131.5 87 132.2 86.3 132.6 85.5C133 84.8 133.3 83.9 133.8 83.2C134.2 82.6 134.7 82.1 135.2 81.6C135.6 81.2 135.9 80.7 136.2 80.2C136.3 80.3 136.4 80.5 136.6 80.7C136.9 79.9 137.1 79.2 137.5 78.2C136.7 78.5 136.4 78.6 135.9 78.8C135.8 78.5 135.8 78.2 135.7 77.9C134.8 78.4 134 78.8 133 79.3C133.2 79.3 133.4 79.4 134 79.5C132.7 80.7 131.4 81.7 130.3 82.8C129.6 83.5 128.9 84.2 128.2 84.9C128 85.1 127.8 85.2 127.5 85.3C127.3 85.4 126.9 85.5 126.9 85.7C126.9 87 125.6 87.5 125.2 88.6C125.1 88.8 124.4 88.9 123.8 89.1C124.2 89.3 124.4 89.3 124.5 89.4C122.8 90.2 120.9 90.5 120.4 92.8C120.1 92.4 119.9 91.8 119.3 92.8C118.9 93.4 117.8 93.6 117.2 94.1C116.2 94.8 115 95.5 115 97.3C114.2 96.3 112.6 97.1 112.4 95.6C111.3 95.3 111.8 94.2 111.3 93.6C111.4 93.5 111.6 93.4 111.7 93.3C111.8 93.5 111.9 93.7 111.9 93.7C112.4 93 113 92.1 113.5 91.2C114.1 90 114.4 88.8 114.9 87.6C115.2 86.9 115.6 86.3 116 85.7C116.2 85.3 116.5 84.9 116.6 84.5C117.5 83.4 118.7 82.5 118.7 80.8C118.7 80.6 119.2 80.5 119.3 80.4C119.6 80 119.9 79.5 120.2 79.1C121.1 77.9 122 76.8 122.9 75.7C122.9 75.7 123.1 75.8 123.3 75.9C122.9 74.7 123.9 74.3 124.4 73.6C124.8 73 125.5 72.5 125.1 71.5C124.4 72 123.9 72.4 123.3 72.9C123.3 73 123.4 73 123.4 73.1C123.6 73 123.8 72.9 124 72.8L124.1 72.9C123.8 73.2 123.4 73.5 123.1 73.8C123 73.7 122.9 73.7 122.8 73.6C123.1 73 123.4 72.4 123.8 71.6C122.3 72 122.5 73.7 121.5 74.3C121.4 74.1 121.2 73.8 121.1 73.5C120.6 74.5 120.4 75.8 118.8 75.6C118.7 75.6 118.6 76 118.4 76.1C117.8 76.6 118.1 77.8 116.8 77.7C116.7 77.7 116.7 78.2 116.5 78.4C115.6 79.4 114.7 80.5 113.8 81.4C112.7 82.4 111.9 83.8 110.4 84.5C110 84.7 109.8 85.4 109.5 85.9C109.1 86.5 108.6 87.1 108.1 87.8C108 87.6 107.9 87.5 107.8 87.3C106.8 88.2 105.8 89 104.7 90C103.5 90 102.9 91.3 101.8 92C102 92.1 102.2 92.1 102.4 92.2C102.1 92.4 101.8 92.7 101.6 92.9C101.5 92.8 101.4 92.6 101.3 92.4C101.1 92.6 100.9 92.7 100.7 92.9C100.2 93.7 99.5 94 98.7 93.8C98.5 94.3 98.4 94.8 98.2 95.6C98 95.1 97.9 94.9 97.8 94.9C96.2 95.8 94.5 96.6 92.7 97.6C92.8 97.1 92.8 96.8 92.8 96.5C91.8 96.4 91.3 95.8 91.3 94.7C91.3 94.6 91.3 94.3 91.2 94.3C89.5 93.3 90.4 91.9 90.9 90.9C91.8 88.9 93 87 94.1 85.1C94.7 84.2 95.5 83.4 96.2 82.5C96.2 82.5 96.4 82.6 96.7 82.8C96.6 82.2 96.5 81.8 96.3 81.3C96.6 81.3 97.2 81.5 97.1 80.6C97.1 80.2 98 79.9 98.5 79.4C98.7 79.2 98.7 78.9 98.5 78.5C99.1 77.5 99.7 76.5 100.4 75.5C100.7 75.1 101 74.7 101.3 74.3C101.8 73.4 102.3 72.5 102.9 71.6C103.3 71 103.8 70.6 104.1 70.1C104.4 69.5 105 68.6 104.7 68.3C104.2 67.6 103.4 67.8 102.8 68.4C102.6 68.6 102.4 68.8 102.1 68.7C101.6 69 101 69.2 100.5 69.5C100.2 69.7 99.8 70.1 99.8 70.5C99.6 71.7 98.5 71.9 97.9 72.5C96.8 73.7 95.1 74.4 94.4 76.1C94.3 76.3 93.9 76.3 93.7 76.5C93.5 76.7 93.5 77 93.4 77.4C93.2 77.4 92.7 77.4 92.1 77.4C92.4 78.1 92.2 78.5 91.3 78.6C91 78.6 90.7 79.3 90.5 79.7C90.3 80 90.3 80.3 90.2 80.6C90.1 80.6 90 80.5 89.9 80.5C90 80.2 90 80 90.1 79.7C90.2 80.8 87.8 80.3 88.9 82C87.5 81.8 86.8 82.1 86.9 83.5C86.9 83.9 86.4 85.2 85.2 85C85 85 84.8 85.3 84.6 85.5C84.3 85.8 84.1 86.2 83.9 86.6C83.6 86.3 83.3 86.1 83.2 85.9C82.4 86.8 81.7 87.7 80.9 88.7C81 88.8 81.2 88.9 81.6 89.2C79.5 89.4 78.1 90.4 77.3 92.4C76.9 91.9 76.6 91.7 76.2 91.3C76.3 91.6 76.3 91.7 76.3 91.8C76.6 92.9 75.6 93.4 75 93.7C73.4 94.4 73.1 95.9 72.6 97.3C72.4 97.1 72.3 96.8 72 96.4C71.7 96.9 71.5 97.2 71.4 97.5C71.3 97.7 71.2 97.9 71.1 98C70.1 98.7 69.2 99.3 68.9 100.7C68.7 101.3 67.4 101.7 66.6 102.2C66.4 102.3 66 102.4 65.9 102.6C65.6 103.2 65.5 103.9 64.6 103.7C64.6 104.6 63.8 104.8 63.3 105.4C63.7 105.4 64 105.4 64.5 105.5C63.7 106 63.1 106.4 62.5 106.8C60.6 105.6 60.3 104.2 61.2 102.2C61.6 101.4 61.8 100.5 62.2 99.7C63.2 97.8 64.5 96.2 65.8 94.5C66.2 94.1 66.4 93.5 66.6 92.9C67.6 90.9 69.7 89.7 70.3 87.4C70.5 86.8 71.3 86.3 71.8 85.8C72.9 84.5 73.9 83.2 75 81.9C75.1 81.7 75.2 81.5 75.2 81.2C75.5 80.5 75.6 79.8 76.4 79.4C76.8 79.2 76.9 78.6 77.2 78.3C77.6 77.8 78 77.3 78.4 76.8C78.5 76.9 78.6 76.9 78.7 77C78.6 76.8 78.4 76.4 78.4 76.4C79.1 75.8 79.9 75.2 80.5 74.6C80.8 74.3 81 73.8 81.3 73.4C82.2 72.3 83.2 71.2 83.9 70C84.6 68.8 85.1 67.6 85.9 66.5C86.2 66.1 86.6 65.8 87 65.6C88.1 64.8 88.6 63.7 89.2 62.5C89.3 62.3 88.7 61.8 88.4 61.3C88.1 61.4 87.7 61.6 87.2 61.7C87.3 62 87.4 62.2 87.4 62.2C85.5 62.6 84.6 64.1 83.5 65.5C83 65.6 82.3 65.6 81.8 65.7C81.8 66.1 81.7 66.5 81.7 66.6C80.9 67 80.4 67.2 79.8 67.5C80 67.6 80.1 67.7 80.4 67.9C79.6 68.1 78.9 68.3 78.3 68.5C78.3 68.6 78.4 68.7 78.4 68.8C78.6 68.8 78.8 68.7 78.9 68.7C77.4 69.9 75.8 71.1 74.1 72.4C74.1 72.3 74.1 72.5 74.2 72.8C73.9 72.6 73.7 72.5 73.4 72.4C73.4 72.9 72.5 73.4 73.1 73.9C72.2 74.5 71.2 75.1 70.3 75.8C69.4 76.5 68.5 77.2 67.4 78.1C67.4 78.6 67.3 79.2 66.3 78.9C66.1 78.8 65.9 78.9 65.6 78.9C65.7 79.1 65.8 79.3 65.9 79.7C65.5 79.6 65.2 79.6 65 79.6C65 79.7 65.1 79.8 65.1 79.9C64.6 80.2 64.1 80.4 63.6 80.7C63 81.2 62.4 81.8 61.8 82.3C61.1 82.9 60.4 83.4 59.7 83.9C59.5 84 59.1 84.1 59.1 84.2C58.9 85.7 57.3 85.4 56.5 86.2C55.8 86.9 54.6 87.1 54.3 88.3C54.3 88.4 53.9 88.5 53.8 88.5C53 88.3 52.6 88.5 52.4 89.4C52.3 89.9 51.8 90.3 51.4 90.6C50.8 91 49.9 91 49.7 92.1C49.6 92.4 48.5 92.4 47.9 92.6C48.6 93.7 46.9 93.9 46.5 94.7C46.5 94.3 46.6 93.9 46.6 93.5C45.8 94.2 45 94.8 44.3 95.4H44.4C44.1 95.6 43.8 95.9 43.4 96.1C43 96.3 42.5 96.4 42 96.6C41.9 96.9 41.9 97.3 41.7 97.9C41.4 97.5 41.3 97.2 41 96.9C40.8 97.5 40.7 98 40.4 98.7C40.3 98.5 40.1 98.3 39.9 98.2C39.4 98.6 38.9 99.3 38.2 99.5C36.9 99.9 36.6 101.7 35 101.4C35 101.4 34.8 102 34.7 102.5C32.9 101.7 32.5 103.8 31 104.2C30.2 103.8 29.7 104.1 28.5 105.4C27.7 106.3 26.8 107.1 25.8 107.8C24.8 108.5 23.7 109 22.8 109.8C22.5 110.1 22.1 110.5 21.8 110.8C21.1 111.5 20.3 111.7 19.3 111.8C18.9 111.8 18.5 112.1 18.2 112.4C17.1 113.2 16 114.1 14.9 114.9C14.7 115.1 14.3 114.9 13.9 114.9C13.5 115 13.1 115 12.8 115.2C12.7 115.3 12.8 115.8 12.8 116.1C12.3 116.4 11.1 115.5 11.2 117C10.1 117.1 9.09999 117.2 7.89999 117.4C7.89999 117.3 7.99999 117.6 7.89999 117.6C7.29999 118 5.99999 118.1 5.19999 117.8C4.89999 117.7 4.69999 117 4.39999 117.8C4.19999 117.6 3.79999 117.5 3.69999 117.2C3.59999 116.9 3.59999 116.6 3.29999 116.2C3.19999 116.5 2.99999 116.8 2.79999 117.3C0.59999 114.4 0.399991 111.3 1.49999 107.9C1.69999 108.1 1.89999 108.2 1.89999 108.3C2.19999 108.1 2.59999 107.9 2.79999 107.6C3.39999 107 3.99999 106.6 3.99999 105.6C3.99999 104.9 4.89999 104.2 5.39999 103.6C5.79999 103.1 6.29999 102.8 6.69999 102.4C7.79999 101.1 8.89999 99.8 9.99999 98.5C11 97.4 12.1 96.3 13.2 95.2C14.1 94.4 15.2 93.7 16.1 92.8C16.5 92.4 16.4 91.7 16.5 91.4C16.9 91.1 17.3 90.9 17.5 90.6C18.3 89.6 18.7 88.2 20.1 87.6C20.8 87.3 21.1 86.3 21.7 85.7C22.1 85.2 22.8 84.9 23.1 84.4C23.7 83.3 24.8 83 25.6 82.2C25.8 82 25.6 81.6 25.6 81.2C26 81.1 26.3 81.1 26.6 81C26.9 80.3 27.3 79.6 27.6 78.9C27.7 79 27.8 79.1 28 79.2C28.5 78.3 29.8 78 30 76.8C30 76.5 30.5 76.3 30.8 76.1C32 75.5 32.9 74.6 33.5 73.4C33.9 72.6 35 72.1 35.7 71.4C36.8 70.4 37.8 69.3 38.9 68.3C39.3 67.9 39.8 67.6 40.3 67.3C40.4 67.2 40.7 67.2 40.7 67.1C40.6 65.8 42.1 65.6 42.6 64.7C43.5 63.1 44.9 61.9 46.6 61.1C47.6 60.6 47.8 59.4 48.6 58.8C49.8 57.9 50 56.2 51.5 55.6C52 55.4 52.2 54.5 52.6 54C54.3 52.1 56 50.3 57.6 48.4C58.6 47.3 59.6 46.3 61 45.7C61.7 45.4 62.5 45.4 63.1 45.2C63.5 46 63.9 46.7 64.2 47.5C64.3 47.8 64.2 48.3 64.1 48.6C63.7 49.4 63.5 50.5 62.9 50.9C62 51.5 62.1 52.1 62.2 52.8C61.2 53.9 60 54.4 58.6 54.4C58.5 54.4 58.3 54.5 58.3 54.5C58.4 55.4 57.6 55.1 57.2 55.4C56.6 55.9 56 56.4 55.3 56.9C54.5 57.5 53.6 58 52.8 58.4C52.3 58.9 51.8 59.4 51.3 59.9C51.8 61.1 51.2 61.9 49.8 61.9C49.7 61.9 49.5 61.9 49.5 61.9C49 62.8 48.4 63.6 47.8 64.7C47.6 64.3 47.4 64 47.3 63.7C46.6 65.6 44.5 65.8 43.3 67.3C43.5 67.5 43.7 67.7 44.1 68C43.6 68 43.2 68 42.6 68C42.8 68.4 42.9 68.7 43 69C42.4 69.2 41.9 69.5 41.5 69.7C41.2 70.1 40.8 70.4 40.6 70.8C40.2 71.9 39 71.9 38.3 72.6C37.9 73 37.5 73.4 37 73.9C36.6 74.3 36.3 74.7 35.9 75C35.5 75.4 35.1 75.7 34.8 76.2C34.7 76.7 33.4 75.9 33.9 77.2C32.5 77.5 32.4 79.4 30.9 79.8C30.7 79.9 30.5 80 30.4 80.1C30.2 80.8 30.3 81.7 29.9 82.2C29.5 82.7 28.6 82.8 27.9 83.2C27.7 83.7 27.6 84.8 27.2 85C26.3 85.3 25.9 86.3 25.1 86.4C23.9 86.6 23.2 87.4 22.4 88.2C22.3 88 22.2 87.8 22.1 87.6C21.8 88.3 21.6 89 21.2 89.9C21.2 89.9 20.9 90 20.4 90.2C20.9 90.4 21.1 90.5 21.4 90.6C21.4 90.7 21.3 90.7 21.3 90.8C20.9 90.6 20.5 90.5 20 90.3C19.3 90.8 20.9 92.4 19 92.5C19.3 92.9 19.6 93.2 19.8 93.5C19.7 93.6 19.7 93.6 19.6 93.7C19.2 93.5 18.9 93.2 18.7 93.2C18.4 93.6 18.3 94 18 94.3C17.5 94.8 16.9 95.2 17 96C17 96.4 16.8 96.8 16.6 97.3C16 96.9 15.4 96.5 15.3 97.7C15.5 97.6 15.7 97.6 15.9 97.5C13.4 98.8 11.7 101.2 9.09999 102.6C9.49999 102.9 9.79999 103.1 9.89999 103.2C9.09999 103.9 8.29999 104.5 7.59999 105.2C6.89999 106 6.39999 106.9 5.69999 107.9C5.69999 107.9 5.39999 107.8 5.19999 107.7C4.59999 108.7 3.99999 109.6 3.49999 110.7C3.29999 111.2 3.29999 111.8 3.39999 112.3C3.39999 112.6 3.79999 112.9 3.89999 113.2C4.09999 113.6 4.79999 114.4 4.99999 114.2C5.89999 113.6 6.69999 114 7.49999 114.3C7.59999 114.3 7.69999 114.3 7.69999 114.3C8.69999 113.7 9.69999 113.2 10.8 112.6C11.5 112.2 12.1 111.8 12.7 111.4C12.9 111.2 13.1 111 13.2 110.9C13.6 110.8 13.9 110.9 14.2 110.7C14.9 110.4 15.6 110.2 16.2 109.8C16.9 109.4 17.5 108.8 18.2 108.3C18.3 108.2 18.4 108.1 18.5 108.1C20.4 108.2 21.4 106.7 22.8 105.8C24.8 104.5 26.6 102.9 28.9 102.1C29.4 101.9 29.7 101.1 30.2 100.8C31.1 100.2 32 99.8 32.9 99.4C33.3 99.2 33.7 99.3 33.8 98.7C33.9 98.4 34.6 98.2 35 97.9C34.9 97.9 34.8 97.8 34.7 97.8C37.1 96.2 39.6 94.7 42 93.1C42 93 42 93.2 42 93.2C42.9 92.6 43.8 92 44.7 91.4C46.2 90.4 47.8 89.5 49.3 88.5C49.7 88.3 50.2 88.2 50.4 87.9C51.4 86.7 52.5 85.7 53.8 85C55 84.3 56 83.1 57.4 82.6C58 82.4 58.3 81.4 58.8 80.8C58.9 80.7 59 80.6 59.1 80.6C60 80.6 60.2 80 60.2 79.4C60.9 79.3 61.6 79.1 62.2 79C62.6 78.7 62.9 78.3 63.3 78C64.3 77.1 65.4 76.1 66.4 75.2C67 74.7 67.7 74.4 68.4 74C69.4 73.4 70.1 72.5 70.9 71.8C71.5 71.3 72.3 70.9 72.9 70.4C73.3 70.1 73.5 69.7 73.8 69.4C74.6 68.7 75.6 68.1 76.4 67.4C76.8 67.1 77 66.6 77.4 66.1C77.5 66.1 77.8 66.1 78.1 65.9C79.6 64.8 81.1 63.7 82.5 62.5C83.4 61.7 84.2 60.8 85 59.9C85.9 59 86.9 58.2 87.8 57.4C88.8 56.6 89.8 55.9 90.8 55.2C91.7 54.5 92.6 53.7 93.4 52.9C94.1 52.2 94.9 51.5 95.6 50.8C97.4 48.9 99.5 47.2 100.8 44.8C101.2 44 102.1 43.5 102.5 42.7C103.2 41.1 104.1 39.6 105.4 38.3C105.8 37.9 105.8 37.3 106 36.7C106.2 36.6 106.6 36.6 106.6 36.5C106.7 34.8 108.7 34.2 108.9 32.5C109 32.7 109 32.9 109.1 33.3C109.2 32.8 109.3 32.4 109.4 31.9C109.4 31.9 109.6 31.9 109.5 31.9C110 31.3 110.4 30.8 110.9 30.3C111.6 29.6 112.3 28.8 112.9 28.1C112.9 28.1 112.9 28 113 27.9C114.6 27 115.2 25.4 116.1 24C116.3 23.6 117 23.5 117.2 23.2C118.3 21.8 119.3 20.4 120.4 19C120.8 18.5 121.3 18.1 121.8 17.7C122.8 16.9 123.3 15.6 124.5 14.9C125.6 14.2 126.5 13.2 127.4 12.3C128.2 11.5 129.2 11.5 130.2 12.4C130.5 12.7 130.7 13 130.9 13.1C130.4 14.4 129.9 15.7 129.4 17C129.3 16.9 129.2 16.8 129.1 16.6C129.1 16.7 129 16.8 129 16.9C128.8 17.4 128.6 17.9 128.4 18.4C128.2 18.8 128.1 19.3 127.9 19.6C127.5 20 127 20.3 126.6 20.7C126.3 20.9 126 21.1 125.8 21.4C125.7 21.5 126 21.8 126.2 22.2C125.7 22.4 125.3 22.6 124.9 22.7C124.2 23.8 123.5 24.8 122.8 26C122.8 26 122.9 26.2 123.1 26.4C123 26.5 122.9 26.5 122.8 26.6C122.6 26.3 122.4 26 122.3 25.8C122 26.4 121.8 27 121.4 27.6C121 28.2 120.6 28.7 120.1 29.2C119.8 29.5 119.5 29.7 119.3 30C118.9 30.7 117.6 30.4 117.6 31.6C117.6 31.9 117.7 32.5 117.6 32.5C117.2 32.6 116.7 32.6 116.1 32.7C116.2 33 116.3 33.5 116.4 33.9C116.1 33.9 115.6 33.9 115 33.9C115 34.5 114.9 35.1 114.9 35.7C114.8 35.7 114.8 35.7 114.7 35.8C114.6 35.6 114.6 35.4 114.5 35.3C114.4 35.2 114 35.1 114 35.1C113.4 36 112.8 37 112.4 37.7C111.7 38.1 111.1 38.4 110.5 38.7C110.8 39 110.9 39.3 111.1 39.5C110.7 39.7 110.4 40.1 110 40.1C109.2 40.3 108.7 40.6 108.8 41.5C108.8 41.7 108.5 42.1 108.3 42.2C107 42.5 106.5 43.3 106.8 44.2C106.1 44.8 105.6 45.2 105.1 45.6C104.7 45.9 104.2 46.1 103.8 46.4C103.6 46.5 103.5 46.8 103.4 47C103.6 47.1 103.8 47.1 103.9 47.2C103.9 47.3 103.8 47.4 103.8 47.6C103 48 102.1 48.3 101.3 48.7C101.2 48.8 101.2 49.1 101.3 49.4C100.5 50.1 99.9 50.9 100.2 52C99.4 52.3 98.6 52.5 97.7 52.8C98.2 53.2 98.5 53.4 98.6 53.5C98.1 53.8 97.8 54.2 97.4 54.4C96.1 54.9 96.3 56.4 95.5 57.2C95.3 57.4 95.1 57.7 95 57.7C93.7 57.6 94.4 58.4 94.5 58.9C93.4 59.2 92.6 59.6 93.1 60.9C92.6 61 92.2 61.1 91.8 61.1C91.8 61.2 91.8 61.3 91.8 61.4C92.1 61.5 92.3 61.6 92.6 61.6C92.6 61.7 92.6 61.7 92.6 61.8C92.3 61.8 92.1 61.9 91.8 61.9C91.5 62 90.9 61.6 91 62.3C91 62.6 91.3 62.8 91.5 63.1C91 63.5 90.2 63.9 89.6 64.5C89 65.1 88.4 65.8 88.9 66.8C88.3 67.1 87.7 67.5 87 67.8C87.3 69 85.6 68.4 85.2 69.2C85.2 69.2 87.1 70 86.9 69.9C86.9 69.8 86.7 69.6 86.6 69.4C85 71.8 83.3 74.2 81.7 76.7C81.4 76.4 81.2 76.1 81 75.9C80.7 76.7 80.4 77.4 80.1 78.2C79.9 78.1 79.8 77.9 79.4 77.6C79.9 78.6 79.9 79.3 78.7 79.4C78.8 79.7 78.8 80.1 78.9 80.7C78.4 80.3 78.2 80.1 77.8 79.8C77.8 80.9 76.5 81.6 77.3 82.7C76.1 83.6 74.7 84.5 74.6 86.3C73.8 86.3 72.9 87.5 72.8 88.6C72.2 89 71.6 89.3 71.2 89.7C70.8 90.2 70.7 90.9 70.4 91.4C70.2 91.8 70 92.2 69.8 92.6C69.6 92.9 68.8 92.9 69.4 93.4C69.7 93.6 70.5 93.6 70.8 93.4C71.4 93 71.7 92.4 72.3 91.9C74.4 90.1 76.7 88.5 78.8 86.7C79.7 85.9 80.4 85 81.2 84.1C81.6 83.7 82.1 83.2 82.5 82.8C83.5 81.9 84.3 80.6 85.5 80.2C87.1 79.5 87.8 78.1 89 77C89.7 76.4 90.1 75.5 90.7 74.8C91.2 74.3 91.8 73.7 92.4 73.4C93.7 72.6 94.5 71.3 95.7 70.4C97.1 69.4 97.8 67.5 99.6 66.9C99.7 66.9 99.9 66.8 99.9 66.7C99.9 65 101.4 65.3 102.2 64.9C102.2 64.6 102.2 64.3 102.3 64.2C102.6 63.9 103 63.6 103.4 63.3C104.9 61.9 106.5 60.4 108 59.1C108.5 58.7 109.2 58.5 109.8 58C110.6 57.4 111.3 56.7 112 56.1C112.6 55.6 113.1 55 113.8 54.7C114.7 54.3 115.8 55.7 115.8 57.1C115.6 56.9 115.4 56.7 115.2 56.5C115.1 57.4 115.1 58.2 114.8 58.8C114.5 59.4 113.7 59.9 113.2 60.5C111.7 62.6 110.1 64.5 109.2 67C109 66.6 108.9 66.4 109 66.5C108.3 67.2 107.6 67.9 107 68.7C106.5 69.4 106.1 70.1 105.6 70.8C105.3 71.3 104.9 71.6 104.7 72.1C104.5 72.5 103.6 72.8 104.3 73.5C104.3 73.5 104.1 73.9 104 74.1C103.9 73.9 103.8 73.7 103.7 73.5C103.1 74.7 102.4 75.9 101.8 77.1C101.7 77.3 102 77.6 102.2 78C101.1 77.8 101.8 80.1 100.2 79.4C100.1 79.8 100 80.3 99.9 80.8C99.9 81 99.7 81.3 99.7 81.3C98.5 81.1 98.8 82.4 98.3 82.9C97.9 83.3 97.7 84 97.4 84.6C96.5 84.6 96 85.2 95.7 86.1C95.4 87.1 95.1 88.1 94.7 89.1C94.5 89.5 94 89.7 93.5 90C93.8 90.1 94 90.1 94.2 90.2C94.1 90.3 94.1 90.5 94 90.6C92.8 91.3 92.8 91.5 93.6 92.7C93.8 92.9 93.8 93.3 93.8 93.5C94.9 93 96 92.5 97.1 92C97.4 91.8 97.7 91.6 98 91.3C98.7 90.5 99.2 89.4 100 89C101.1 88.5 102 87.7 103.1 87.2C103.3 87.1 103.5 86.8 103.7 86.6C104 86.4 104.3 86.2 104.7 85.9C104.7 85.5 104.9 85.5 105.7 85.1C106.3 84.8 106.7 84.2 107.2 83.7C107.6 83.2 107.9 82.6 108.3 82C108.4 81.9 108.7 81.9 108.9 81.8C109.5 81.4 110.1 81 110.7 80.6C111 80.3 111.3 79.9 111.5 79.6C111.7 79.3 111.8 78.8 112.1 78.5C112.3 78.2 112.8 78.2 113.1 78C113.9 77.2 114.7 76.4 115.5 75.5C116.1 74.8 117 74.3 117.4 73.4C117.9 72.4 119.1 72 119.8 71C120 70.7 120.5 70.3 120.9 70.2C121.6 70 121.8 69.6 122.1 69C122.3 68.5 123.1 68.2 123.6 67.9C123.4 67.8 123.2 67.7 122.9 67.6C123 67.4 123.1 67.3 123.1 67.2C124.5 66.5 125.3 65.3 126.1 64C126.4 63.6 126.7 63.2 127.1 62.8C128.1 61.9 129.2 61.2 129.9 60.1C130.3 59.5 130.5 59 131.3 58.6C132.7 57.9 132.8 59.2 133.3 59.5C133.2 60.4 133.1 61.1 133 61.8C132.9 62.8 132.6 63.7 131.9 64.5C131.3 65.3 131 66.2 130.4 67C129.9 67.7 129.3 68.3 129.2 69.3C129.2 69.6 128.2 69.9 127.7 70.2C127.9 70.5 128.1 70.8 128.4 71.2C127.3 71 128 73.1 126.6 72.4C126.5 72.7 126.5 73 126.4 73.3C126.6 73.3 126.8 73.2 127 73.2C125.5 74.1 125.3 75.9 124.4 76.9C123.4 77.9 123.1 79.6 121.6 80.1C121.4 80.2 121.3 80.8 121.2 81.1C121.1 81.8 121.1 81.8 120.4 81.5C120.3 82.4 120.1 83.1 119.3 83.8C118.5 84.5 118.4 85.9 117.9 86.9C117.8 87.2 117.6 87.6 117.4 87.9C117.3 88.2 117.1 88.5 117 88.8C116.9 88.7 116.8 88.6 116.4 88.2C116.6 89 116.8 89.5 116.9 89.8C117 89.5 117.3 89 117.5 88.5C117.7 88.7 117.8 88.9 118 89.1C118.1 89.4 118.1 89.8 118.2 90.1C118.5 89.9 118.8 89.8 119 89.6C120.1 88.8 121.2 88.1 122.3 87.3C122.7 87 123.1 86.6 123.5 86.2C123.8 85.9 124.1 85.5 124.5 85.1C124.5 85.1 124.3 85 124.2 84.9C125.6 83.8 126.9 82.7 128.3 81.6C128.6 81.3 128.9 80.9 129.2 80.6C130.1 79.7 131.1 78.8 132 77.8C132.2 77.6 132.3 77.4 132.5 77.2C132.9 76.9 133.4 76.6 134 76.2C134.6 75.3 135.3 74.2 136 73C136.1 73.4 136.1 73.6 136.2 74.1C137 72.4 138.1 71.2 139.4 71C139.8 70.1 140 69.3 140.4 68.8C141.4 67.8 142.6 66.9 143.6 66C143.1 65 144.2 64.8 144.5 64.5C145.5 63.8 145.8 62.2 147.3 62.2C147.5 61.2 148.9 61.3 149.1 60.1C149.2 59.7 150.5 59.3 151.2 59.4C152.3 59.5 152.4 60.5 152.4 61.4C152.4 61.5 151.9 61.7 151.9 61.7C151.9 62.4 152.1 63.2 151.9 63.4C151.3 63.8 150.9 65.1 150 64C149.8 64.4 149.7 64.8 149.5 65.1C148.8 66.2 147.8 67.3 147.4 68.5C147.1 69.5 146.4 69.9 146 70.5C145.1 71.9 144.3 73.4 143.4 74.8C143.3 75 142.9 75.2 142.7 75.2C141.7 75.1 141.4 75.9 141.1 76.5C140.6 77.5 140.2 78.5 139.8 79.4C139.7 79.6 139.9 79.9 139.9 80.1C139.9 80.4 139.8 80.6 139.8 80.9C139.7 80.9 139.6 80.9 139.5 80.9C139.4 80.6 139.4 80.3 139.3 80C139 81.2 137.5 81.9 138.3 83.5C137.9 83.6 137.6 83.6 137.1 83.6C137.5 83.8 137.9 84 138.1 84.2C138.6 83.9 139.2 83.7 139.6 83.3C140.5 82.4 141.3 81.3 142.2 80.4C142.7 79.9 143.2 79.5 143.9 79.2C144.8 78 145.6 76.8 146.5 75.7C147.3 74.6 148.2 73.5 149.1 72.4C149.3 72.1 149.5 71.8 149.8 71.6C150.5 71 151.3 70.5 152 69.9C152.2 69.7 152.1 69.3 152.2 68.8C152.4 68.7 152.8 68.6 153.3 68.5C153.5 67.4 153.8 66.4 154.9 65.8C155.4 65.6 155.6 64.9 155.9 64.4C156.1 64.1 156.3 63.9 156.6 63.6C156.9 63.3 157.2 63 157.5 62.7C157.7 62.6 157.9 62.5 158.1 62.4C158.3 62.3 158.5 62.2 158.7 62.1C159.4 61.3 159.9 60.5 160.6 59.8C161.3 59 162.2 57.7 162.9 57.8C164.2 57.9 164.1 56.7 164.8 56.3C165.7 55.8 166.5 55.7 167 56.1C167.4 56.4 167.4 57.4 167.4 58.1C167.4 58.5 166.8 59 167.5 59.5C167.6 59.6 167.2 60.3 167 60.7C167.2 60.8 167.4 60.9 167.3 60.8C166.5 63 165.7 65.1 165 67.3C165.5 67.3 165.9 67.3 166.5 67.4C166.4 67.2 166.3 67 166.3 66.9C167.6 65.8 168.9 64.8 170.2 63.7C170.4 63.5 170.9 63.6 171.1 63.4C171.6 62.8 172.1 62.2 172.5 61.7C172.8 61.6 173.4 61.6 173.5 61.4C174 60.2 174.2 60 175.6 59.7C176.1 59.6 176.6 59 177.1 58.7C177.5 58.5 178 58.3 178.5 58.1C178.5 57.8 178.6 57.3 178.7 56.7C179.9 57.1 180.8 56.3 181.8 55.7C182.8 55.2 183.8 54.7 184.9 54.5C185.6 54.3 186.2 54.8 186.8 55.3C188.6 56.8 188.2 58.8 188.3 60.6C188.3 61.2 187.6 61.8 187.3 62.4C187.2 62.6 187.1 62.7 187.1 62.9C187 63.4 187.2 64 186.4 64.2C186.2 64.2 186.3 65.1 186 65.5C185.6 66.1 185 66.4 184.6 67C184.1 67.7 183.9 68.5 183.5 69.3C183.6 69.3 183.3 69.2 183.4 69.2C182.5 70.4 181.8 71.5 181 72.6C180.9 72.8 180.7 73 180.6 73.2C180.3 73.9 180.4 74.7 179.4 75C179 75.2 178.8 75.9 178.5 76.4C177.9 77.7 177.3 79.1 176.7 80.4C176.6 80.5 176.4 80.6 176.3 80.7C176.2 81 176.1 81.3 176 81.6C176.9 81.7 176.2 83.5 177.6 83.2C178.1 83 178.6 82.8 179.2 82.6C179.4 82.5 179.7 82.6 180.1 82.6C180.7 81.8 181.2 80.8 182.6 80.3C183.9 79.9 184.9 78.9 186.1 78.2C186.5 78 187.1 77.7 187.6 77.8C188.5 78 188.5 77.5 188.5 76.8C189 76.7 189.6 76.5 190.1 76.4C191 76.3 191.1 74.8 192.7 75.3C191.6 74.1 193 73.9 193.2 73.2C193.4 73.3 193.6 73.5 193.8 73.7C197.1 70.5 200.4 67.3 203.8 64C203.7 64 204 64.1 204.2 64.2C204.7 63.3 205.2 62.5 205.8 61.4C205.8 61.4 205.7 61.2 205.6 60.9C205.7 60.8 205.8 60.8 205.9 60.8C206.6 60.8 207.3 61.2 207.7 60.1C207.8 59.7 208.7 59.5 209.2 59.3C209.6 59.1 210.2 58.9 210.3 58.6C210.8 57.2 212.2 57 213 56.2C213.6 55.7 214.3 55.3 214.7 54.4C215 53.6 215.8 52.4 217.2 52.6C217.3 52.6 217.5 52.4 217.6 52.3C218.5 51.3 219.5 52 220.4 52.1C220.5 52.1 220.7 53 220.6 53.1C219.9 53.6 220.5 54.1 220.4 54.6C220.3 55.6 220.1 56.7 219.9 57.7C219.8 58.1 219.2 58.4 219 58.9C218.7 59.8 218.2 60.6 217.3 61.1C217.9 62.3 216 62.5 216.2 63.6C216.3 64 215.6 64.4 215.3 64.6C212.8 66.7 211.2 69.3 210.4 72.4C210 74.2 208.7 75.4 207.7 76.8C207.6 77 207.3 77.1 207.3 77.2C207.3 78.3 206.2 79 206.4 80.2C206.6 81 206.1 82 206 82.7C206.6 83.1 207 83.3 207.4 83.5C207.8 81.9 210.5 82.2 210.5 79.9C210.8 80.2 211 80.4 211.3 80.8C211.3 80.3 211.3 80 211.3 79.7C212.6 78.6 214 77.6 215.3 76.5C215.3 76.4 215.2 76.2 215.1 75.9C215.5 76.1 215.8 76.3 216.1 76.4C216.7 75.9 216.8 74.8 217.9 74.9C218.1 74.9 218.3 74.7 218.5 74.5C218.9 74.1 218.9 73.1 220 73.3C220.1 73.3 220.5 72.3 220.7 71.8C220.8 71.8 220.9 72 221.1 72.1C221.6 71.3 222 70.3 223.4 70.7C223.5 69.5 224.3 69.1 225.2 68.6C226.2 68.1 226.9 67.1 227.9 66.8C229.3 66.5 230 65.2 231.3 64.9C231.7 64.8 232.1 64.3 232.4 63.9C232.8 63.6 233.3 63.2 233.8 62.9C234.1 62.7 234.4 62.5 234.7 62.5C235.6 62.3 236 61.5 236.7 61.1C237 60.9 237.3 60.5 237.7 59.9C239 59.5 240.6 59 241.6 57.3C241.5 57.6 241.4 57.8 241.3 58.1C241.4 58.2 241.4 58.2 241.5 58.3C242.1 57.7 242.6 56.8 243.2 56.7C244.2 56.6 244.7 55.6 245.4 55.6C246.5 55.5 246.7 55 246.8 54.1C246.8 54 247 53.8 247.1 53.7C247.3 54 247.5 54.3 247.7 54.7C248.4 54.1 249.1 53.5 249.7 52.9C249.6 52.8 249.5 52.7 249.4 52.6C249.5 52.5 249.7 52.2 249.8 52.2C250.6 52 251.3 51.9 252.1 51.8C252.1 51.6 252 51.3 252 51C252.4 51 252.7 51 252.9 51C255.1 49.1 257.6 47.9 260.3 47C260.6 47.4 260.9 47.8 261.3 48.4C261.1 49.1 261.1 50.2 260.5 50.9C260 51.5 259.5 52.3 258.4 52.2C256.8 52.1 255.3 52.5 254.7 54.4C254.5 54.2 254.4 54 254.3 53.9C253.3 54.6 252.1 55.1 251.2 55.9C250.1 56.8 248.6 57 247.8 58.4C247.6 58.7 247 58.8 246.4 59C245.9 59.6 245.3 60.6 244.4 61.1C243.3 61.6 243.7 63.7 242.3 63.3C241 64.2 240.6 65.5 239 65.5C239 66.1 239 66.7 239 67.2C238.9 67.2 238.8 67.1 238.7 67.1C238.5 67.5 238.3 68.2 238 68.3C236.9 68.7 236.9 70.1 236.1 70.5C234.6 71.3 233.2 72.1 232.3 73.6C232 74.1 231.5 74.4 230.9 74.9C231.3 74.9 231.5 75 231.4 75C230.9 75.6 230.5 76.3 230 77C229.6 77.5 229.1 77.8 228.8 78.3C228.4 78.9 228.1 79.6 227.7 80.2C227.2 81.1 226.5 82 226.1 83C225.9 83.6 226.1 84.4 226.1 85.1C226.3 85.3 226.6 85.5 226.9 85.8C226.7 85.9 226.6 86.1 226.3 86.3C226.7 86.4 227.1 86.4 227.5 86.5C227.4 86.8 227.3 87.1 227.3 87.3C227.4 87.3 227.6 87.4 227.6 87.4C228.3 86.6 229.1 87.2 229.8 87.2C231.1 87.1 232.3 87 233.6 86.8C233.8 86.8 234 86.3 234.2 86.1C234.5 85.9 234.8 85.6 235.1 85.5C236.3 85.1 237.8 85 238.6 84.2C239.3 83.4 240.2 83.5 240.9 82.9C241.1 82.7 241.2 82.4 241.4 82.3C242.3 81.9 243.1 81.4 244 81.1C244.6 80.8 245 80 245.8 80.4C245.9 80.4 246.2 80.2 246.3 80C246.9 79.3 247.5 78.5 248.1 77.8C248.2 77.7 248.5 77.9 248.7 78C248.8 77.7 248.7 77.3 248.9 77.2C249.9 76.6 250.9 76.1 251.9 75.5C252.2 75.3 252.5 75.1 252.7 74.8C253.1 73.9 253.8 74 254.5 74.1C255 72.9 257 71.6 258.1 71.8C258.3 71.2 258.6 70.7 258.8 70.1C259.3 70.5 259.3 70.5 259.9 69C260.4 69.2 260.9 69.3 261.4 69.5C261.4 69.4 261.5 69.3 261.5 69.1C261.3 69 261.1 69 261 68.9C260.9 68.8 260.7 68.7 260.7 68.6C260.7 68.5 260.8 68.3 260.9 68.3C261.5 68.1 262.2 67.9 262.7 67.8C262.8 65.9 265.5 66.2 265.8 64.4C265.8 64.6 265.9 64.7 265.9 64.9C266.4 63.4 267.7 63.1 268.9 62.7C268.6 60.8 271.1 61.7 271.2 60.2C271.2 60.2 271 60.1 270.8 59.9C272.6 59.4 272.7 57.3 274.3 56.6C274.9 57 275.1 56.9 275.5 55.9C275.6 55.7 276.1 55.6 276.5 55.4C276.6 54.8 276.4 54 277.5 53.9C277.5 53.2 279.2 53.5 278.3 52.3C278.2 52.2 278.6 51.6 278.8 51.3C279.4 50.3 280.5 49.4 280.7 48.4C280.9 47.5 282.5 46.9 281.5 45.8C281.9 45.7 282.5 45.7 282.6 45.4C282.9 44.8 283.1 44 283.3 43.1C283.5 43 283.9 42.8 284.4 42.6C283.9 41.9 283.3 41.3 284.7 41.2C285.1 41.2 285.5 40.5 285.9 40.1C286.8 39.1 287.6 38 288.5 36.9C289.1 36.2 289.8 35.5 290.4 34.8C290.6 34.5 290.6 33.9 290.7 33.4C292.8 33.7 291.7 31.7 292.4 31C292.6 31.2 292.7 31.4 292.9 31.7C293.4 31.1 292.5 29.4 294.3 30C294.7 28.9 295.1 28 296.3 27.3C296.9 26.5 297.7 25.4 298.5 24.3C298.7 24.3 299.1 24.3 299.4 24.3C299.7 23.8 300 23.2 300.4 22.5C300.5 22.5 300.6 22.6 300.6 22.6C300.6 22.8 300.6 23 300.7 23.3C301.2 22.5 301.6 21.7 302.2 21.1C302.7 20.5 303.4 20.1 304.1 19.5V19.3C304.7 19.1 305.2 18.6 305.5 18.7C306.7 19 306.4 18 306.8 17.6C307.5 16.9 308.2 16.1 309.1 15.7C309.5 15.5 310.4 16.1 310.9 16.5C311.1 16.7 311.2 17.4 311 17.8C310.2 19.6 309.3 21.3 308.3 23C307.9 23.7 307.2 24.1 306.8 24.8C306.5 25.3 306.6 25.9 306.3 26.3C305.3 27.2 304.3 28.2 303.2 29.2L303.3 29.4C301.9 31.5 300.9 33.9 298.4 34.9C298.2 34.8 297.9 34.7 297.7 34.7C297.5 34.5 297.3 34.3 297.2 34.2C298.1 33.2 298.9 32.2 299.8 31.3C299.9 31.4 300.1 31.5 300.5 31.9C300.1 30.6 300.2 29.8 301.4 29.8C301.5 29.8 301.6 29.4 301.7 29.2C301.9 28.8 302.1 28.4 302.4 28.1C302.8 27.6 303.3 27.2 303.8 26.8C303.5 26.7 303.3 26.7 302.8 26.6C303.5 26 304 25.5 304.5 25.1C304.1 24.9 303.6 24.8 303.2 24.6C302.9 24.5 302.5 24.6 302.2 24.9C301.3 25.8 300.6 27.1 299.5 27.5C298.3 27.9 298.4 29.4 297.2 29.6C296.8 29.7 296.5 29.9 296.1 30C296.2 30.2 294.9 33 294.5 33C293.5 33.1 294 34 293.6 34.4C293.2 34.8 292.7 35 292.4 35.4C291.7 36.3 291.6 37.6 290.4 38.2C290.2 38.3 290 38.3 289.5 38.4C289.9 38.5 290.1 38.5 290.7 38.7C289.8 39.4 289 39.8 288.5 40.4C287.9 41 287.5 41.9 287 42.6C288.2 43.4 288.5 43.3 288.7 42.1C289 42.2 289.3 42.4 289.5 42.3C290.2 41.8 291.7 42.2 291.8 40.7C291.8 40.5 292.1 40.4 292.2 40.2C292.5 39.9 292.8 39.5 293.2 39.1C293.2 39.1 293.5 39.2 293.7 39.3C293.7 39.2 293.7 39.2 293.8 39.1C293.5 38.9 293.2 38.8 292.9 38.5C293.5 38.3 294 38 294.6 37.8C294.5 37.7 294.4 37.4 294.2 37.2C294.9 37 295.4 36.9 296 36.7L296.1 36.8C296.2 38.4 295.1 39.3 294.2 40.3C294 40.5 294 40.9 293.8 41.1C293.2 41.7 292.4 42.1 291.8 42.7C291.3 43.3 290.4 43.4 290.1 44.3C290 44.6 289.5 45.1 289.2 45.1C287.6 45.3 287.6 46.8 286.9 47.7C286.5 48.2 286.5 49.1 285.7 49.3C285.6 49.3 285.6 49.7 285.6 49.7C285.1 50 284.7 50.3 284.3 50.6C284.2 50.7 284.1 50.9 284 50.9C283.5 51.1 282.9 51.2 283.3 52C283.3 52 282.9 52.2 282.7 52.3C282.5 52.4 282.2 52.4 282.2 52.4C281.6 54.4 279.9 55.2 278.4 56.1C278.3 56.2 278.2 56.3 278.1 56.4C277.6 57.4 276.9 58.1 275.7 59.2C275.1 59.8 274.8 60.6 274.4 61.3C274.3 61.4 272.8 63 272.8 63.1C272.7 63.2 272.7 63.4 272.6 63.6C272.4 63.9 272.2 64.3 272 64.6C271.6 65 271.2 65.6 270.8 65.8C268.9 67.2 268.7 69.7 267.1 71.2C266.2 72.1 265.6 73.5 264.8 74.1C263.6 75 263 76.3 262 77.3C261.2 78 261.1 79.1 260.7 79.9C260.5 80.3 260.3 80.7 260.1 81.1C259.7 82 259.3 82.9 258.8 84C259.9 84.1 260.7 84.2 261.6 84.2C261.8 84.2 261.9 83.7 262.1 83.5C262.3 83.2 262.4 82.8 262.6 82.7C264.1 82.2 264.4 80.9 264.9 79.7C265.1 79.9 265.3 80.1 265.4 80.3C265.9 79.9 266.2 79.5 266.7 79.2C267.1 78.9 268.4 79 267.3 78C267.3 78 267.4 77.6 267.6 77.5C268.2 77.3 268.9 77.3 269.4 76.9C269.8 76.6 270.1 76.2 270.5 75.9C271.1 75.3 271.6 74.7 272.3 73.9C273.1 73.9 274 73.1 274.5 71.5C275.4 71.8 275.4 71.7 275.2 70.6C275.4 70.7 275.6 70.7 275.7 70.7C276.7 69.2 277.6 67.8 278.7 66C278.6 66.5 278.6 66.6 278.5 67C278.8 66.9 279.2 66.9 279.3 66.7C279.9 65.3 279.9 65.3 280.7 64.8C280.6 64.5 280.4 64.3 280.2 63.9C280.9 63.8 281.6 63.8 282.4 63.7C282.5 62.3 283.8 62.8 284.6 62.5C284.6 62.7 284.6 63.1 284.7 63.1C286.3 63.4 286 64.9 285.9 65.7C285.5 67.7 285.5 69.9 284.1 71.6C283.9 71.9 284 72.5 283.8 72.9C283.5 73.5 283.2 74 282.8 74.5C282.8 74.5 283 74.4 283.2 74.4C282.4 76.6 281.6 78.9 280.9 81C281.1 81.6 281.2 82 281.2 82.2C280 83.5 280.9 84.6 280.7 85.9C281.6 85.9 282.4 85.9 283.2 85.9C283.5 85.9 283.8 86.2 284 86.3C284.9 85.6 286 84.1 286.9 84.2C288.9 84.3 289 82.5 290.2 81.9C290.4 81.8 290.7 81.8 291 82C291.8 81.1 292.5 80.1 293.3 79.2C293.3 79.2 293.4 79.4 293.4 79.5C294.1 78.8 294.8 78.1 295.6 77.3C295.3 77.2 295.1 77.1 294.7 77C295.2 76.7 295.5 76.4 295.8 76.4C297.1 76.5 297.5 75.5 298.1 74.8C298.6 74.3 298.9 73.5 299.7 74.5C299.8 74.6 300.2 74.4 300.5 74.1C300.3 74.1 300.2 74.2 299.8 74.2C300 73.7 300.2 73.4 300.4 73C300.2 72.9 300 72.8 299.4 72.5C300.5 72.3 301.3 72.2 302.1 72.1C301.6 71.7 301.2 71.5 300.7 71.1C302.1 70.7 303 70 303.7 68.8C304.3 67.7 305.3 66.9 306.1 65.9C306.5 65.4 306.9 64.7 307.3 64.1C307.4 64.2 307.5 64.3 307.6 64.5C308.1 63.7 307.5 62.6 308.7 62C309.4 61.7 308.9 59.9 310.5 60.2C310.3 58.7 311.7 58.3 312.7 57.5C311 56.6 312.8 56.2 313 55.6C313.4 54.5 314.7 53.8 314.5 52.4C314.5 52.2 314.7 52 314.9 51.8C315.3 51.3 315.7 50.8 316 50.3C316.2 50 316.4 49.6 316.6 49.2C316.8 48.8 316.8 48.3 317.1 48C317.5 47.6 318.8 47.7 319 48.2C319.4 49.4 320.1 50.6 319.1 51.9C318.8 52.3 318.8 53 318.4 53.3C317.8 53.8 317.8 53.9 317.6 55C317.5 55.6 317.2 56.2 316.9 56.8C316.4 57.7 315.9 58.5 315.4 59.5C315.3 59.3 315.3 59.2 315.2 58.7C315 59.7 314.4 60.3 314.3 61.2C314.3 61.4 313.9 61.5 313.7 61.6C313 62.6 312.2 63.6 311.5 64.6C311 65.3 310.7 66 310.3 66.7C309.3 68.6 308.3 70.5 307.2 72.3C307.1 72.5 306.5 72.5 305.9 72.7C305.8 73.3 305.7 74.1 305.4 74.9C305.3 75.3 304.8 75.6 304.6 75.9C303.9 77 303.2 78.1 302.5 79.2C301.7 80.4 300.8 81.6 300.8 83.2C300.8 83.3 300.9 83.3 300.9 83.4C302 82.2 302.2 82.2 303.1 83.4C303.1 83.1 303 82.8 303 82.4C304.5 83.4 304.7 81.6 305.6 81.4C306 81.3 306.2 80.7 306.5 80.3C307.2 79.5 307.4 80.4 307.9 80.8C308.1 80.2 308.3 79.7 308.4 79.1C308.7 79.1 309 79.2 309.4 79.2C309.7 78.8 309.9 78.3 310.2 77.7C310.6 77.6 311.2 77.5 311.9 77.3C312.1 76.8 312.3 76.3 312.6 75.7C312.7 75.7 312.7 75.7 312.8 75.7C312.8 76 312.8 76.2 312.8 76.5C312.9 76.5 313 76.5 313.1 76.6C313.2 76.2 313.3 75.8 313.4 75.4C313.6 75.4 313.9 75.3 314.1 75.3C314.1 75 314 74.6 314 74.4C314.6 74.3 315.1 74.3 315.7 74.2C315.4 73.2 316.1 73.1 316.8 72.8C317.1 72.7 317.5 72.5 317.8 72.3C317.9 72.3 318 72.3 318.1 72.3C317 73 317.2 73 317.4 73.1ZM171.1 124.3C170.5 124.6 169.9 124.8 169.4 125.2C169 125.6 168.8 126.2 168.4 126.7C167.4 127.9 166.4 129.1 165.5 130.3C166.1 130.5 166.6 130.6 167.4 130.8C166.6 131.1 166.2 131.2 165.5 131.5C166 131.8 166.4 132.1 166.5 132.1C167.4 131 169.1 130.9 169.7 129.4C169.9 128.8 170.4 128.3 170.8 127.7C170.7 127.6 170.6 127.5 170.5 127.5C170.8 127.5 171.2 127.5 171.8 127.5C171.7 126.3 171.7 125.1 171.6 123.9C171.2 123.9 171 124 170.7 124C170.8 124 171 124.1 171.1 124.3ZM174.2 121.2C174.2 121.1 174.1 121 174.1 120.8C173.9 120.9 173.7 120.9 173.4 121C173.4 121.1 173.4 121.2 173.5 121.2C173.7 121.3 174 121.2 174.2 121.2Z" fill="white"/>
<path d="M452.6 60.8C452 60.6 451.4 60.5 451 61.2C450.9 61.4 450.5 61.4 450.2 61.4C449.5 61.3 448.9 61.2 448.1 61.3C448.6 61.4 449 61.6 449.5 61.7C449.5 61.8 449.5 61.9 449.5 62C449 62 448.5 61.8 448.1 62C446.8 62.6 445.7 63.5 444.4 64C442.9 64.5 441.6 65.6 439.8 66.1C439.8 66.1 439.8 66.4 439.7 66.6C439.6 66.6 439.5 66.7 439.4 66.7C438.2 66.3 437.4 67.3 436.4 67.7C435.7 68 435.1 68.6 434.4 69.1C434.2 69.2 433.9 69.1 433.6 69.1C433.6 68.9 433.7 68.7 433.7 68.4C433.3 68.8 433 69 432.7 69.3C432.3 69.7 432.1 70.1 431.4 70.2C430.7 70.2 430.1 70.9 429.4 71.3C429.4 71.3 429.3 71.4 429.3 71.5C427.9 70.8 427.6 72.2 426.8 72.7C426.5 72.9 425.9 72.8 425.4 72.8C425.1 73.6 424.7 74.5 424.3 75.3C423.9 76.1 423.1 75.6 422.7 75.4C421.2 74.8 421.2 73.3 422.4 71.6C422.5 71.5 422.6 71.5 422.6 71.4C422.7 70.9 422.8 70.3 423 69.8C423.6 68.6 424.2 67.5 424.8 66.3C425.4 66.5 425.8 66.7 426.3 66.9C424.7 66 426.4 65.7 426.5 65.1C426.7 65.3 426.8 65.4 426.9 65.6C427.1 65.4 427.4 65.1 427.4 64.9C427.4 64.7 427.1 64.5 426.8 64.2C427.3 64 427.9 63.7 428.3 63.5C428.2 63.1 428.1 62.7 427.9 62.1C428.3 62.4 428.6 62.5 428.9 62.8C429.2 62.2 429.4 61.7 429.7 61.1C429.9 61.1 430.2 61.1 430.6 61C430.7 61 431 60.9 431 60.9C431 59.2 432.9 59.2 433.5 58C433.8 57.4 434.2 56.3 434.5 56.4C435.5 56.6 435.5 55.7 435.7 55.3C435.9 54.8 435.9 54.3 435.9 53.7C434.8 53.1 433.7 52.7 432.3 53.2C432.1 53.3 431.9 53.1 431.6 53.1C431.5 53 431.5 52.9 431.4 52.7C431.4 52.6 431.4 52.5 431.4 52.3C431.6 50.7 431.8 50.6 433.3 51.3C433.4 51.3 433.5 51.1 433.6 51.1C433.9 51 434.4 50.9 434.6 51C435.4 51.8 436.2 51.5 437 51.2C437.2 51.1 437.5 51.4 437.7 51.6C437.9 51.8 438.1 52.1 438.3 52.3C438.7 52.7 438.9 53.2 438.2 53.5C439 54.2 438.3 54.8 438.1 55.4C437.8 56.1 437.7 56.8 437.4 57.5C437.3 57.7 437.1 57.8 436.8 58C436.8 58 437 58.2 437.3 58.5C436.9 58.5 436.6 58.5 436.2 58.5C436 59.5 435.3 60.3 434.7 60.3C434.5 60.6 434.2 61.1 434.1 61.1C433.2 60.9 433.1 61.7 432.7 62.1C432.3 62.6 432.2 63.6 431.2 63.1C430.3 63.8 430.7 65.5 429.2 65.9C428.7 66.4 428.2 67 427.8 67.6C428.5 67.7 428.9 67.7 429.4 67.7C429.4 67.7 429.4 67.5 429.5 67.3C430.6 68 431.6 67.6 431.7 66.4C432 66.6 432.3 66.9 432.6 67.1C432.7 67 432.7 67 432.8 66.9V66.8C432.7 66.6 432.7 66.4 432.7 66.3C433.3 66.2 434 66.3 434.6 66.1C435.3 65.9 436 65.4 436.7 66.7C436.6 65.2 437.1 64.8 438.2 64.7C438.8 64.6 439.3 64.2 439.8 63.9C440.7 63.4 441.5 62.9 442.5 62.4C442.4 62.3 442.3 62.2 442.2 62C442.3 61.9 442.3 61.8 442.4 61.8C442.7 62.1 443 62.3 443.2 62.6C443.3 62.7 443.1 62.9 443 63.4C443.5 63 443.7 62.8 444.3 62.4C443.8 62.4 443.4 62.4 443.1 62.3C443.2 62.1 443.3 62 443.5 61.8C443.6 61.7 443.8 61.6 443.9 61.6C444.3 61.7 444.6 62 444.9 62.1C445.2 62.1 445.6 62 446 61.8C446.1 61.7 446.1 61.2 446.1 61.2C445.8 61.1 445.4 61 445 60.7C445.5 60.6 446 60.5 446.5 60.5C447.1 60.5 447.7 60.6 448.1 59.9C448.3 59.6 448.7 58.8 449.6 59.3C450 59.5 450.8 59 451.4 58.8C451.4 58.5 451.4 57.9 451.4 57.4C451.5 57.4 451.5 57.4 451.6 57.4C451.7 57.8 451.8 58.3 451.9 58.7C452.9 57.4 454.2 56.8 455.2 57.4C455.1 57.1 455.1 56.9 455.1 56.6C455.7 57.8 456.4 57.2 456.9 56.9C456.8 56.5 456.7 56.3 456.7 56C457 56 457.4 56.1 457.7 56.1C457.9 56.1 458.2 56.2 458.2 56.2C458.5 55.2 459 55.7 459.5 56C459.9 55.5 460.2 55.1 460.5 54.7C460.6 54.8 460.8 54.9 461 55.1C461.2 54.7 461.5 54.2 461.8 53.6C462.2 53.8 462.5 54 462.7 54.1C463.5 53.8 464.2 53.3 465 53.3C466.1 53.2 466.4 52.5 466.9 51.8C467.1 51.5 467.5 51.3 467.7 51C467.9 50.8 468.1 50.5 468.3 50.1C468.4 50.2 468.7 50.4 468.7 50.4C469.5 49.9 470.3 49.5 471.2 49C470.8 48.8 470.5 48.7 470.3 48.6C471.2 46.6 473.2 46.4 475.2 45.9C474.8 45.5 474.5 45.3 474.4 45.2C475.6 44 476.8 42.8 478.2 41.3C478.4 41.8 478.7 42.4 479 43C479 43 479.1 42.8 479.2 42.6C479.4 42.8 479.6 43 479.8 43.3C478.2 44.2 478.5 45.9 478 47.3C476.5 47.2 476.1 48.6 475.5 49.3C474.7 50.2 473.7 50.4 472.9 51C472.6 51.2 472.4 51.5 472.2 51.8C472.1 51.7 471.9 51.5 471.7 51.3C471.5 52.9 470.4 53.2 469 53.3C469.2 53.6 469.3 53.8 469.5 54.2C469 54.3 468.4 54.3 467.8 54.4C467.8 54.5 467.7 54.8 467.7 54.8C467.2 54.9 466.8 54.9 466.6 55.1C466.3 55.4 466.1 55.9 465.9 56.3C465.9 56.3 465.8 56.1 465.7 56.1C464.6 56.3 463.5 56.6 463.1 57.8C463.1 57.9 463 58.1 463 58.1C461.6 57.9 461.2 59.3 460.4 59.9C459.4 60.6 458.6 61.8 458 63C457.4 64.1 456.9 64.1 456.1 63.4C455.8 64 455.7 64.6 455.4 65C455 65.5 453.9 65.3 453.8 66.4C453.8 66.8 453.4 67.1 453.1 67.5C453.2 67.6 453.3 67.7 453.3 67.7C453.1 67.7 452.9 67.7 452.7 67.7C453 68.6 453.2 68.7 453.8 68.3C454.6 67.8 455.4 67.3 456.3 66.7C456.1 67.2 455.9 67.5 455.6 68.2C456.8 67.7 456.9 65.8 458.6 66.7C458.4 66.3 458.3 66 458.2 65.9C459 65.5 459.7 65.2 460.4 64.9C460.4 64.9 460.5 65.1 460.6 65.6C461.4 63.5 461.4 63.5 462.3 64C462.4 63.5 462.4 63.1 462.5 62.6C463.9 63.6 463.9 62.6 464.1 61.9C464.8 61.2 465.5 60.5 466.2 59.8C466.2 60.1 466.1 60.3 466.1 60.6C466.2 60.6 466.2 60.6 466.3 60.6C466.4 60.2 466.6 59.8 466.7 59.6C467.2 59.6 467.6 59.6 468 59.6C468 59.5 468 59.4 468 59.4C467.8 59.3 467.5 59.2 467.3 59.1V59C468 59 468.7 59.1 469.4 59.1C469.4 59 469.4 58.9 469.4 58.7C469.2 58.7 468.9 58.7 468.7 58.7C468.8 57.8 468.7 56.9 470 57C470.4 57 471 56.7 471.3 56.3C471.8 55.6 471.9 54.7 472.7 54.2C472.9 54.1 473 54 473.2 53.9C473.2 54.1 473.2 54.3 473.2 54.6C473.5 54.4 473.7 54.1 473.7 53.8C473.7 53.4 473.6 52.9 473.5 52.2C473.9 52.7 474.1 52.9 474.2 53.1C474.5 52.8 474.7 52.5 474.8 52.4C475.8 52.4 476.7 52.3 477.8 52.3C477.5 51.8 477.3 51.3 476.9 50.6C477.4 50.7 477.7 50.7 478.1 50.8C478.3 50.1 478.5 49.1 478.7 48.2C479.2 48.3 479.7 48.3 480.4 48.4C480.3 48.2 480.2 48.1 480.1 48C480.6 47.9 481.2 47.7 481.8 47.6C481.6 48 481.4 48.2 481.3 48.5C482.5 48.7 481.6 49.6 481.9 50.1C480.7 49.9 480.8 50.7 480.6 51.4C480.5 52.1 480.3 52.7 480.1 53.4C480.1 53.6 479.9 53.7 479.7 53.8C479.6 53.6 479.5 53.4 479.3 52.9C478.8 54.5 477.2 55 477 56.6C476.9 57 476.2 57.5 475.8 57.5C474.7 57.5 474.4 58.1 474.5 59.1C474.2 59.1 473.9 59.1 473.6 59.1C473.4 59.9 473.2 60.6 472.9 61.5C472.7 61.5 472.5 61.4 472.4 61.4C471.3 63 470.3 64.5 469.2 66.1C468.9 66.5 468.9 67 468.6 67.3C467.6 68.4 467.1 69.4 466.6 71.2C466.5 71.6 465.8 71.9 465.4 72.3C465.3 72.2 465.2 72.2 465.1 72.1C465.1 72.3 465.1 72.6 465.1 72.8C465.1 73 465.2 73.2 465.2 73.3C464.7 73.7 464.2 74 463.4 74.6C464 74.6 464.1 74.6 464.3 74.5C464.3 74.6 464.3 74.6 464.3 74.6C463.8 75.3 463.4 76 462.9 76.7C462.7 77 462 78.5 461.8 79C461.7 79.3 461.2 79.5 461 79.8C460.7 80.3 460.5 80.8 460.3 81.3C459.1 83.8 458 86.3 456.6 88.8C455.9 90.1 455.7 91.6 454.5 92.7C454.1 93.1 454.2 94 454.2 94.7C454.2 94.9 454.7 95.2 454.9 95.2C455.3 95.2 455.7 94.9 456.2 94.8C456.3 94.8 456.7 95.1 456.7 95.3C456.7 96.4 455.2 98.5 454.1 99C453.9 99.1 453.8 99.3 453.6 99.4C453.1 100.2 452.7 101 451.7 101.5C451.1 101.9 450.9 103 450.5 103.9C450.2 104.5 449.9 105.2 449.5 105.6C449.2 105.8 448.6 105.9 448.7 106.1C448.8 106.9 448.4 107.2 447.8 107.7C447.4 108 447.4 108.9 447.1 109.4C446.4 111 445.9 112.9 444.7 114C443.8 114.9 443.9 115.7 443.7 116.6C443.6 117.2 443 117.7 442.7 118.3C442.3 119 441.9 119.7 441.4 120.5C440.7 121.6 440 122.8 439.3 123.9C439.2 124.1 438.9 124.3 439 124.5C439.4 125.9 438.3 126.7 437.9 127.7C437.6 128.4 437.4 129.2 437 130C435.8 130.2 435.9 131.5 435.3 132.3C434 134.1 433 136.2 431.6 138C430.6 139.2 430.1 140.8 429.3 142.6C428 143.9 426.4 145.5 424.7 147.2C424.4 147.6 424.1 148.3 423.7 148.9C423.4 149.3 423.1 149.7 423 149.9C422.5 150.2 422.2 150.4 421.9 150.7C420.9 151.6 420 152.5 419 153.4C418.8 153.6 418.5 153.8 418.3 153.9C417.6 154.2 417.6 155.3 416.5 155.1C416.2 155.1 415.8 156.1 415.4 156.6C415 157.1 414.6 157.6 414.2 158C414.1 158.1 413.8 158.1 413.3 158.2C413.5 157.7 413.6 157.3 413.7 156.9C413.3 156.9 412.8 156.8 412.3 156.8C413.3 155.7 413 154.4 412.7 153.2C412.3 151.9 412.9 151.5 413.8 151C413.5 150.3 413.1 149.7 412.8 149.1C412.9 149 413 149 413.1 148.9C413.3 149.2 413.4 149.5 413.7 149.9C413.9 149.4 414.1 149 414.2 148.6C414.6 147.4 414.9 146.1 415.3 144.6C416.3 144.3 416 142.9 416.4 142C416.7 141.3 416.6 140.5 417.7 140.5C417.9 140.5 418 140 418.2 139.7C418.2 139.7 417.9 139.5 417.8 139.5C418.5 137.4 420.2 135.9 421.8 134.2C421.8 134.3 421.9 134.4 422 134.5C422.5 133.4 423 132.2 423.5 131.1C423.4 130.9 423.3 130.6 423.2 130.4C424.6 131.1 424.7 131 425.8 128.1C426 128.4 426.1 128.6 426.2 128.8C426.3 128.6 426.4 128.3 426.4 128.1C426.4 127.8 426.3 127.5 426.3 127.2C426.4 127.2 426.5 127.2 426.6 127.2C426.8 127.4 426.9 127.7 427.1 127.9C427.7 127.2 428.1 126.7 428.6 126.2C429.1 125.8 429.6 125.4 429.9 124.9C430.3 124.5 430.6 124 431 123.6C431.1 123.5 431.4 123.5 431.4 123.4C431.6 121.4 434.1 121.4 434.5 119.6C434.6 119.3 434.5 118.9 434.7 118.7C435 118.3 435.4 118 435.8 117.7C435.9 117.8 436 117.9 436.1 117.9C436.1 117.6 436.1 117.3 436 117C437.1 116.8 438.5 115.2 438.6 114.2C440.4 114.3 439.7 113 439.7 112.4C440.2 111.9 440.6 111.6 441.1 111.2C441.1 111.2 441.2 111.5 441.5 112C441.8 111.4 442 111 442.1 110.5C444.5 108.9 446.4 106.8 447.9 104.3C447.8 104.1 447.6 103.7 447.4 103.2C447.9 103.1 448.3 103 448.6 103C449 101.9 449.2 100.3 450 99.7C451.3 98.7 450.5 97.4 451.1 96.5C451.7 95.4 452.4 94.3 453 93.1C453.2 92.6 453.6 91.8 453.4 91.5C452.7 90.5 453.8 90.5 454 90C454.1 89.7 454.6 89.6 454.7 89.3C454.9 88.4 455.7 87.5 454.9 86.4C454.8 86.3 455.3 85.5 455.6 85.4C456.8 85 456.5 83.9 456.9 83.1C457 82.9 457 82.7 457.1 82.5C457.6 81.9 458.2 81.3 458.6 80.6C458.7 80.4 458.5 80 458.3 79.6C458.2 79.4 458.1 79.2 458 79C458.2 79 458.4 79.1 458.5 79C459.2 78.6 459.8 78.1 460.6 77.6C460.3 77.5 460 77.4 459.7 77.3C459.8 76.7 459.8 76.1 459.9 75.5C460 75.5 460.1 75.5 460.2 75.5C460.2 75.8 460.2 76.1 460.3 76.5C461.2 76 460.5 74.2 462.1 74.6C462.1 72.8 462.8 71.3 463.8 71.4C463.6 71.1 463.4 70.8 463.2 70.4C463.7 70.4 464 70.4 464.2 70.4C464.5 69.8 464.7 69.3 464.9 68.8C465.2 68.1 465.6 67.4 466 66.8C466 66.7 466.3 66.7 466.4 66.7C467 66.5 466.9 66.2 466.7 65.7C466.5 65.2 466.5 64.6 466.5 64.1C466.9 64.2 467.2 64.2 467.7 64.4C467.4 63.5 467 62.6 466.7 61.8C466.5 61.9 466.4 61.9 466.2 62C466.3 62.6 466.4 63.1 466.5 63.7C466.2 63.8 465.9 63.8 465.6 63.9C465.3 63.9 465 63.9 464.7 64C464.3 64.4 463.7 65.1 463 65.7C462.4 66.2 461.6 66.6 461 67C460.4 67.4 459.7 67.7 459.2 68.2C458.7 68.7 458.4 69.3 458 69.9C458 69.9 457.9 69.7 457.7 69.5C457.6 70.3 457.3 70.9 456.3 70.6C455.7 71.8 454.2 71.7 453.3 72.4C452.7 72.8 452 73.2 451.4 73.6C450.6 74.1 449.5 74.5 449.3 75.8C449.2 75.5 449.2 75.3 449.1 75C448.7 75 448.2 74.9 447.5 74.8C447.7 73.2 447.9 71.6 448.1 69.9C448.3 69.8 448.4 69.7 448.6 69.7C448.7 69.9 448.8 70.1 449 70.6C449.6 69.4 450.1 68.3 450.7 67.3C451.1 66.6 451.6 66 452.2 65.3C452.2 65 452.2 64.5 452.1 63.9C452.2 63.9 452.3 63.9 452.3 63.9C452.4 64.1 452.5 64.4 452.6 64.5C453 64 453.3 63.5 453.7 63C453 61.7 452.8 61.3 452.6 60.8C453 60.9 453.4 61.1 453.7 61.3C453.6 60.7 453.6 60.2 453.5 59.8C453.1 59.9 452.6 59.9 452.1 60C452.3 60.2 452.4 60.5 452.6 60.8ZM439.3 118.1C438.7 117.7 438.3 117.2 437.8 117.1C437.5 117.1 436.7 117.6 436.7 117.8C436.8 119.3 435.2 119.4 434.7 120.3C434.1 121.3 433.2 122 432.5 122.9C432.1 123.3 431.7 123.8 431.4 124.2C430.9 124.8 430.7 125.7 430.1 126.2C429.1 127 427.8 128.3 427.5 129.4C427.5 129.5 427.3 129.5 427.3 129.6C426.4 130.7 425.6 131.9 424.7 133C424.5 133.2 424.4 133.6 424.2 133.8C423.5 134.5 423.3 135.6 422.3 136.2C421.7 136.6 421.6 137.7 421.2 138.4C420.6 139.4 419.6 140.3 419.1 141.4C418.2 143.5 416.8 145.4 416.5 147.7C416.4 148.2 416.2 148.8 416 149.3C415.9 149.2 415.7 149.1 415.6 149C415.5 149.4 415.3 149.8 415.1 150.3C416.4 150.3 417.4 150.3 418.3 150.3C418 149.3 419.1 149.1 419.4 148.3C419.7 148.6 419.8 148.9 420 149.1C421.5 147.5 422.9 146.1 424.4 144.5C424.4 144.4 424.3 144 424.2 143.5C424.6 143.2 425.8 143.9 425.8 142.6C425.5 142.5 425.2 142.4 424.8 142.2C426.1 141.9 426.1 141.9 426 140.8C426 140.6 426.2 140.2 426.4 140.2C427.4 140 427.4 139.9 427.4 139.1C427.4 139 427.8 138.7 427.8 138.7C428.4 139.2 428.5 138.6 428.7 138.3C429.1 137.8 429.5 137.2 430.1 136.6C430.1 136.2 430.1 135.6 430.1 135C430.1 135 430.6 134.9 430.7 135C430.8 135.1 430.9 135.3 430.9 135.5C430.7 134.1 431.6 133.4 432.6 132.8C432.5 132.3 432.4 131.8 432.3 131.5C432.8 131.1 433.2 130.8 433.6 130.5C433.7 130.6 433.7 130.9 433.8 131.1C433.9 130.9 434.1 130.6 434.1 130.4C434.1 130.2 433.9 130 433.9 129.8C433.9 129.6 434 129.1 434 129.1C435.2 129.2 434.6 128.2 434.8 127.8C435 127.3 435 126.6 435.1 126C436.5 126.1 436.5 126.1 436.8 123.5C436.9 123.8 437 123.9 437.1 124.1C437.5 123.4 437.9 122.7 438.4 122L438.3 121.9C438.1 122 437.9 122.2 437.6 122.3C437.5 121.8 437.5 121.3 437.4 120.8C437.7 121.1 438 121.3 438.3 121.5C438.4 121.2 438.5 120.8 438.6 120.5C438.7 120.3 438.6 120 438.8 119.8C439.1 119.3 439.5 118.8 439.8 118.3C439.7 118.2 439.7 118.2 439.6 118.1C439.5 118 439.3 118.1 439.3 118.1Z" fill="white"/>
<path d="M431.7 52.5C431.8 52.6 431.8 52.7 431.9 52.9C431.6 53.9 430.7 54.3 429.9 54.7C429.2 55.1 428.4 55.4 427.8 55.9C427.2 56.5 426.8 56.6 426.4 55.6C426.1 56 425.8 56.6 425.4 56.9C425.1 57.2 424.5 57.2 423.9 57.3C423.7 58.3 422.8 58.7 421.7 58.9C420.9 59.1 420.1 59.6 419.3 60C419 60.1 418.6 60.3 418.4 60.5C418.1 60.7 418 61 417.7 61.4C416.2 61 414.5 61.8 413.4 63.6C413.2 64 412.3 64 411.9 64.3C411.7 64.5 411.4 64.7 411.1 64.8C410.7 65 410.4 65.2 410 65.4C409.1 66 408.2 66.6 407.2 67.1C405.9 67.6 405 68.6 404 69.4C403.7 69.6 403.3 69.6 402.8 69.7C402.9 69.8 403 69.9 403.1 70C401.6 70.5 400.7 71.4 399.9 72.8C399.6 73.4 399 74.5 397.8 73.8C397.7 73.7 397.4 74 396.9 74.3C396.9 73.7 396.9 73.3 397 72.9C397 72.6 397 72.6 396.5 72.3C396.3 72.2 396.2 71.8 396.1 71.6C397.4 70.7 397.5 70.2 396.8 69.7C397.1 69.4 397.5 69 397.9 68.6C398.5 68.1 399.4 68 399.6 67C399.8 67.1 399.9 67.1 400.1 67.2C400.2 67.1 400.3 67.1 400.4 67C400.1 66.5 399.7 66 399.5 65.6C400.3 65.4 401.2 65.1 402.1 64.7C402 64.4 401.9 64.2 401.9 64.1C402.3 63.6 402.7 63.2 403 62.9C403.6 62.2 404.1 61.3 404.8 60.9C405.7 60.4 405.4 59.5 405.7 58.9C405.8 58.6 405.5 57.9 406.4 58.2C406.5 58.2 406.8 57.9 406.8 57.8C406.7 56.8 407.5 56.6 408.1 56C408.5 55.7 408.5 55 408.7 54.5C408.8 54.3 408.9 54.1 409.2 53.7C408.5 53.2 407.7 52.6 406.9 52C406.9 52.1 406.8 52.3 406.8 52.4C406.1 52.7 405.5 52.9 404.8 53.3C404.2 53.6 403.9 54.7 402.9 53.7C403 54.2 403.1 54.4 403.2 54.7C402.6 54.9 402 55 401.2 55.3C401.6 55.5 401.7 55.6 402.1 55.8C399.6 55.5 398.5 57.9 396.3 57.9C396.3 58 396.4 58.1 396.4 58.3C396.6 58.4 396.9 58.4 397.3 58.6C396.8 58.7 396.6 58.8 396.4 58.7C396.2 58.7 395.9 58.6 395.7 58.6C395.9 58.8 396 59.1 396.1 59.2C394.4 60 392.7 60.9 391.1 61.7C391.2 61.7 391.5 61.8 391.9 61.8C391.5 62.1 391.3 62.4 391.1 62.3C389.4 61.9 388.7 63.6 387.4 63.9C387 64 386.6 64.3 386.3 64.5C385.7 65 385.1 65.5 384.5 65.9C383.1 66.7 382.1 68.3 380.3 68.5C380 68.5 379.7 68.5 379.3 68.4C379.2 69.3 378.7 70 377.6 70.2C377.2 70.3 376.9 70.8 376.6 71.1C375.9 71.8 375.2 72.7 374.3 73.1C373.2 73.6 372.7 74.4 372.7 75.6C372.1 75.4 371.5 75.2 371 75.1C370.8 74.4 370.7 73.9 370.5 73.3C370.5 73.1 370.4 72.9 370.5 72.8C371.9 72 371.4 70.5 371.8 69.4C371.8 69.3 371.9 69.3 372.1 69.2C372.2 69.5 372.3 69.8 372.4 70.1C372.8 69.8 373.1 69.6 373.4 69.4C373.1 69.2 372.8 68.9 372.5 68.7C372.5 68.6 372.6 68.6 372.6 68.5C372.9 68.6 373.2 68.6 373.6 68.7C373.6 68.2 373.7 67.8 373.7 67.4C374 67.4 374.2 67.5 374.5 67.5C374.6 67.5 374.7 67.6 374.8 67.6C374.8 67.5 374.7 67.4 374.7 67.3C374.2 66.2 375.1 66.4 375.7 66.1C375.6 66 375.4 65.8 375.2 65.6C376.1 65.4 376 65.1 375.4 64.6C376.2 64.1 376.2 64.1 376.7 65.4C376.8 64.9 376.9 64.5 376.9 64.1C376.9 63.7 376.8 63.3 376.7 62.8C377.6 63.2 378.6 62.4 378.6 61.3C378.6 61.1 378.7 60.9 378.7 60.8C378.9 60.9 379.1 61 379.2 61.1C379.6 60.5 379.1 59.2 380.4 59.1C380.3 58.7 380.3 58.3 380.2 57.9H380.1C380.2 57.5 380.2 57 380.3 56.6C379.9 56.7 379.4 56.7 379 56.8C378.8 56.8 378.5 56.9 378.3 56.9C378.2 56.9 378.1 56.9 378 56.9C377.8 56.7 377.7 56.4 377.5 56.2V56.1V56H377.4H377.3C377.3 55.9 377.2 55.9 377.2 55.8C377.5 55.4 377.8 54.9 378.1 54.5C378 54.5 378 54.4 377.9 54.4C378.8 53.7 379.7 53.1 380.9 52.2C380.7 52.8 380.6 53 380.5 53.3C380.6 53.3 380.6 53.4 380.7 53.4C381 52.8 381.2 52 381.8 51.5C382.3 51.1 383.1 51.1 383.8 50.9C383.8 50.8 383.7 50.6 383.6 50.4C384.4 50.2 385.1 50 385.9 49.9C386 49.9 386.4 50.6 386.4 50.9C386.4 51.4 386.1 51.9 386 52.4C385.9 52.9 385.8 53.5 385.7 54.1C385.3 55 384.8 56 384.3 57.1C384.1 57 383.9 57 383.9 57C382.6 59.3 381.4 61.6 380 64.1C379.7 63.6 379.6 63.4 379.4 63C379.3 63.2 379.2 63.4 379.2 63.6C379.2 63.9 379.2 64.4 379.4 64.4C379.7 64.5 380.2 64.4 380.5 64.4C380.7 64.4 381 64.3 381.3 64.3C381.4 64.1 381.5 63.7 381.6 63.3C382 63.4 382.3 63.4 382.7 63.5C382.7 63.6 382.7 63.7 382.7 63.8C382.4 63.9 382 64 381.7 64.1C381.7 64.2 381.7 64.3 381.8 64.4C382.9 64 384.1 63.5 385.2 63.1C385.2 63.1 385.1 62.9 384.9 62.7C385.6 62.4 386.4 62 387 61.7C386.6 60.6 388.1 60.9 388.2 60.3C388.2 60.5 388.2 60.6 388.3 60.8C388.5 59.4 389.4 60.5 389.8 60.4C389 59 390.9 59 391 58.4C391.8 58.3 392.5 58.3 393.2 58.2C393.3 58.2 393.3 57.7 393.4 57.2C393.4 57.2 393.7 57.2 394.1 57.1C393.9 56.2 395 56 395.6 55.4C396.8 54.1 396.8 57 397.8 55.9C397.7 55.8 397.5 55.7 397 55.4C397.6 55.3 398 55.3 398.2 55.3C398.1 54.9 398.1 54.5 398 54C399.9 54.4 401.3 53.8 402.3 52.2C402.5 52.4 402.6 52.6 402.8 52.9C403.1 51.6 404.9 50.6 406.1 51C406.2 50.7 406.2 50.3 406.4 50.2C407.2 49.9 408.1 49.6 408.9 49.4C409.6 49.2 410.4 49.1 411.2 48.9C411.6 48.8 411.2 49.8 412 49.4C412.3 49.2 412.9 49.6 413.4 49.7C413.9 52 412.1 53.7 411.8 55.5C411.2 55.6 410.7 55.7 410.6 55.8C410.4 56.5 410.2 57 410.1 57.4C409.8 58 409.6 58.7 409.3 59.3C409.1 59.8 408.8 60.3 408.5 60.6C407.6 61.5 406.7 62.2 405.7 63.2C406.5 63.3 407.1 63.4 407.6 63.5C407.6 63.4 407.5 63.2 407.5 63.1C408.1 62.8 408.7 62.6 409.3 62.3C409.3 62.4 409.3 62.7 409.3 63.2C409.8 62.2 410.2 61.3 411.4 61.7C411.3 61.5 411.2 61.3 411.2 61.3C412 60.9 412.7 60.5 413.5 60.2C413.7 60.1 414 60.2 414.1 60.3C414.5 61.6 415 60.6 415.3 60.3C415.7 59.8 415.9 59.2 416.3 58.3C416.4 58.7 416.4 59 416.5 59.1C416.8 58.8 417 58.7 417.2 58.5C417.6 58.2 418 57.8 418.3 57.5C418.6 57.2 418.8 57 419.4 57.3C419.8 57.5 420.3 57.2 420.8 57.2C421.6 57.1 422.3 57 423.3 56.8C422.9 56.3 422.6 56.1 422.5 55.9C423.2 55.4 424 54.8 424.8 54.4C425.5 54.1 426.3 53.9 427.1 53.7C427.1 53.7 427.3 54 427.4 54.3C427.4 53.7 427.5 53.3 427.5 52.8C427.8 52.9 428 53.1 428.4 53.2C428.2 52.8 428.1 52.6 427.8 52.1C428.3 52.3 428.5 52.5 429 52.7C429.2 52.5 429.5 52 429.8 51.5C430.2 51.8 430.5 52 431 52.4C431 52.4 431.1 52.2 431.2 52C431.2 51.8 431.1 51.7 431.1 51.5C430.9 52.2 431.3 52.4 431.7 52.5Z" fill="white"/>
<path d="M317.4 73.1C317.2 73 317 73 316.7 72.9C316.7 72.7 316.7 72.5 316.7 72.4C316.8 72.5 316.9 72.5 316.9 72.6C317.7 72.8 317.9 72.2 318.3 71.7C319 70.8 319.9 70 320.6 69.1C320.8 68.9 320.8 68.5 321 68.1C321.1 68.3 321.2 68.5 321.3 68.6C322.5 68 322.7 66.2 324.3 66.1C324.6 64.5 326.1 65.2 327 64.7C327.2 64.6 327.3 64.2 327.5 64C327.4 63.9 327.3 63.9 327.2 63.8C327.1 64 327 64.2 326.9 64.4C326.5 63.7 326.5 63.7 328 63.2C328 62.9 328 62.6 328 62.4C328.4 62.4 328.8 62.5 329.4 62.5C329 62 328.8 61.8 328.8 61.7C329.5 61.5 330.3 61.4 331 61.1C331.3 60.9 331.4 60.3 331.6 59.6C332.1 59.5 332.9 59.3 333.7 59.1C333.7 58.9 333.5 58.6 333.4 58.1C333.8 58.1 334.1 58.1 334.3 58C335 57.6 335.5 57 336.3 56.6C337.4 56.1 338.4 55.2 339.9 55.7C339.7 55.3 339.6 55 339.4 54.7C339.5 54.6 339.5 54.5 339.6 54.5C340.4 54.4 341.3 54.1 342.1 54.3C342.6 54.4 343 55.2 343.2 55.8C343.3 56.4 343.3 57.5 343 57.7C342 58.3 342.6 59 342.4 59.7C342.3 60 342.1 60.4 341.8 60.5C340.4 61 340 62.4 339.5 63.5C339.1 64.5 338.9 65.5 338.4 66.5C338.3 66.8 337.7 66.9 337.5 67.2C336.6 68.2 335.7 69.2 334.8 70.2C334.6 70.4 334.2 70.5 334.1 70.7C333.7 71.4 333.2 72.1 332.8 72.8C332.5 73.3 332.2 73.7 332 74.2C331.9 74.5 332 74.9 332 75.3C332.1 75.3 332.2 75.4 332.3 75.4C333 74.7 333.6 74.1 334.3 73.4C334.4 73.3 334.7 73.2 334.8 73.2C336.7 73.4 337.9 72.8 338.3 70.7C338.4 71 338.5 71.2 338.7 71.8C339.2 71.2 339.5 70.7 339.9 70.1C340.1 70.1 340.5 70.2 340.9 70.2C340.8 69.5 340.7 68.9 340.5 68.3C340.6 68.3 340.7 68.3 340.8 68.2C340.9 68.6 341 69 341.2 69.6C341.6 69.2 341.9 68.9 342.2 68.5C342.7 67.7 343.3 67.4 344.2 67.4C344.4 67.4 344.6 66.6 344.8 66.2C346.4 66.5 346.7 66.2 346.7 64.7C346.7 64.6 346.9 64.3 347 64.3C348.2 64.6 348.3 63.7 348.4 63C349.4 63 350.3 63 351.2 63C351.2 63.4 351.2 63.8 351.2 63.9C350.6 64.3 350.1 64.7 349.4 65.3C348.9 65.1 348.5 65.5 347.8 66.4C347.3 67 347 68.3 345.7 68.3C345.3 68.3 345 68.8 344.6 69.1C343.7 69.7 342.8 70.3 341.9 70.8C341.8 70.9 341.6 70.7 341.7 70.8C341 71.6 340.4 72.3 339.7 72.9C339.1 73.5 338.5 74 337.8 74.5C336.9 75.2 336 76 334.9 76.8C334.9 76.9 334.8 76.7 334.9 76.8C334 77.4 333.3 78 332.5 78.5C332 78.8 329.3 80.8 329.1 81.2C329 81.3 329.1 81.6 329 81.8C328.9 81.9 328.6 82.1 328.5 82.1C327.8 81.7 327.3 82.1 326.8 82.6C326.1 83.2 325.6 83.9 324.9 84.5C324.5 84.8 324 84.9 323.7 85C322.6 86.4 320.9 87.1 320.9 89C320 87.9 318.2 87.7 318.6 85.8C318.7 86.2 318.8 86.5 318.8 86.8C318.7 85.6 319.3 85.2 320.6 85.2C320.1 85 319.8 84.8 319.2 84.6C320.1 84.3 320.4 83 321.3 84.1C321.5 83.5 321.7 83 322 82.2C322.2 82.7 322.3 82.9 322.5 83.2L322.6 83.1C322.3 82.6 322.1 82.1 321.7 81.5C322 81.6 322.1 81.7 322.4 81.8C322.5 81.6 322.5 81.3 322.6 81C322.8 81.2 322.9 81.4 323.2 81.6C323.4 80.1 324.1 79.2 325.5 78.9C325 77.6 325.3 77.1 326.6 76.8C327.2 76.7 328 76.4 327.3 75.4C327.7 75.4 328 75.5 328.4 75.5C327.3 74.7 327.3 74.7 327.9 73.8C328.1 74 328.2 74.2 328.5 74.6C328.9 73.8 329.3 73.1 329.8 72.1C329.8 72.2 330 72.6 330.1 72.9C330.2 72.9 330.3 72.8 330.5 72.8C330.6 72 330.8 71.2 331 70.2C331.4 70.1 332.1 70 332.9 69.8C332.6 69.2 332.4 68.8 332.2 68.4C333 68 334.1 68.3 334.2 67.2C334.3 65.9 335.3 65.8 336.2 65.2C335.9 65 335.7 64.8 335.3 64.5C336.1 64.4 337.4 64.7 336.7 63.5C337.2 62.9 337.6 62.5 338 62.1L338.1 62.2C338.3 61.7 338.6 61.3 338.8 60.7C337.6 59.8 339.2 59.2 339.3 58.6C338.7 58.6 338.2 58.6 337.6 58.6C337.6 58.7 337.7 59 337.7 59.2C337.6 59.2 337.5 59.2 337.5 59.3C337.4 58.9 337.3 58.6 337.3 58.3C336.5 58.8 335.6 59.3 334.8 59.9C333.7 60.7 332.7 61.7 331.6 62.5C330.7 63.2 329.7 63.9 328.7 64.6C328.6 64.7 328.4 64.8 328.4 64.9C328 66 326.8 66 326.1 66.6C325.5 67 325 67.6 324.6 68.1C324.1 68.7 323.7 69.3 323.2 69.8C323.1 69.9 322.9 70.1 322.7 70.2C321.7 70.7 320.6 71.2 319.6 71.8C319.4 71.9 319.2 72.2 319.1 72.4C318.9 72.8 318.7 73.2 318.5 73.6C318 73.6 317.7 73.3 317.4 73.1Z" fill="white"/>
<path d="M377.2 56.4C377.2 56.5 377.3 56.5 377.3 56.6C377.3 56.7 377.3 56.7 377.4 56.7C377.6 56.9 377.7 57.2 377.9 57.4V57.5C377.7 57.6 377.6 57.7 377.5 57.9C377 58.5 376.6 59.2 376.1 59.7C375.9 59.9 375.6 59.9 375.3 60.1C375 60.2 374.6 60.4 374.6 60.6C374.5 61.6 374.1 61.8 373.3 61.2C373.2 61.1 373 61.2 373 61.2C373 61.6 373.1 62.2 372.9 62.4C371.6 63.5 370.8 65.3 368.7 65.7C368.5 66.4 368.8 67.6 367.2 67.6C366.6 67.6 366.2 68.8 365.6 69.4C365.1 69.9 364.4 70.2 363.8 70.6C363.6 70.7 363.6 71 363.5 71.2C362.4 71.1 361.7 71.8 361.2 72.7C360.6 73.8 359.7 74.5 358.6 74.9C358.1 75.1 358.5 75.6 358 76C356.2 77.3 354.8 79.1 353.3 80.7C353 81 352.4 81 352 81.3C351.6 81.6 351.3 81.9 351 82.3C350.4 83.1 349.3 83.8 348.3 83.9C348.3 83.9 348.2 84 348.2 84.1C347.5 85.1 346.7 86.1 345.5 86.4C345.3 86.2 345 86 344.6 85.6C344.5 85.3 344.2 84.7 344 84.2C344.1 84.2 344.4 84.3 344.9 84.5C344.3 83.5 344.1 82.6 345.1 81.8C344.9 81.8 344.6 81.9 344.4 81.9C344.7 80.9 345 79.9 345.3 78.9C346.7 79 345.2 77.1 346.3 77C346.3 77.4 346.4 77.8 346.4 78.5C346.9 77.6 347.1 77.1 347.5 76.5C346.7 75.3 348.7 75.3 348.9 74.5C348.8 73.9 348.8 73.4 348.7 72.9C348.8 72.9 348.9 72.9 349 72.9C349.1 73.1 349.1 73.4 349.2 73.7C350.2 72.6 351.1 71.5 352.1 70.4C352 70.3 352 70.3 351.9 70.2C351.6 70.3 351.4 70.4 351.1 70.5C351 70.4 351 70.3 350.9 70.3C351.7 69.5 352.6 68.8 353.5 67.9C353.3 67.8 353 67.7 352.5 67.4C353.2 67.3 353.6 67.3 354 67.2C353.9 67 353.8 66.8 353.7 66.7C354.3 66.1 354.7 65.5 355.2 65C355 64.7 354.9 64.4 354.7 64.1C354.4 64.2 354.1 64.2 353.8 64.3C353.8 64.2 353.7 64.1 353.7 64C354 63.9 354.4 63.9 354.6 63.7C354.7 63.6 354.8 63.2 354.7 63C354.6 62.9 354.3 62.8 354.1 62.8C353.5 63 352.9 63.3 352.3 63.5C351.9 63.6 351.5 63.5 351.1 63.5C350.7 63.3 350.4 63.1 350 62.8C350.2 63 350.3 63.2 350.5 63.4C350.8 63 351 62.7 351.3 62.3C351.9 62.5 352.6 62.1 353.2 61.1C352.9 61.1 352.8 61.2 352.6 61.2C352.8 60.6 352.8 60.6 354.3 60.9C354.5 60.5 354.7 60 354.9 59.6C355.4 59.7 355.9 59.8 356.4 59.9C357.1 58.7 357.1 58.7 359.7 57.7C361.2 58.5 360.3 59.8 360.3 60.8C360.3 62.5 359 63.6 357.8 64.6C357.3 65 357 65.3 357.2 65.7C356.4 66.8 355.6 67.9 355 69C354.3 70.2 353.8 71.6 352.9 72.6C352.1 73.4 351.7 74.6 351.1 75.2C350.2 76 350.3 76.8 350 77.6C350 77.7 349.7 77.8 349.6 77.9C349.4 78 349.1 78.2 349 78.4C348.8 78.9 348 79.4 347.1 79.2C347.8 79.7 348.3 80.1 348.7 80.5C349.7 79.2 350 78.9 350.8 78.8C350.7 78.5 350.6 78.2 350.6 77.8C350.7 77.7 350.7 77.7 350.8 77.6C351.1 77.9 351.4 78.2 351.8 78.5C351.9 78.4 352 78.4 352 78.3C352 77.8 351.9 77.4 351.9 76.8C352.3 77.1 352.6 77.3 352.9 77.4C353.2 77.2 353.4 76.9 353.8 76.8C355.3 76.3 356.3 75.3 357.3 74.2C357.9 73.5 358.9 73 358.5 71.9C359.2 72 359.8 72.1 360.6 72.2C360.4 71.7 360.2 71.4 360 71C360.4 71.1 360.7 71.1 361.1 71.2C361.2 70.6 361.3 70 361.5 69.5C361.6 69.3 362 69.1 362.2 68.9C363.1 68.4 364.1 68 365 67.6C364.8 67.5 364.6 67.3 364.4 67.2C364.7 66.6 366 67.4 365.5 66.1C365.8 66.3 366 66.4 366.2 66.5C366.4 65.9 366.6 65.4 366.7 65.1C367.4 64.5 368 64.1 368.6 63.6V63.4C370.4 63.8 369.8 62.1 370.5 61.3C370.8 61.6 371 61.8 371.4 62.3C371.4 61.7 371.4 61.4 371.4 61C371.5 61.1 371.5 61.1 371.6 61.2C372.1 60.7 372.5 60.2 373 59.7C373.5 59.2 374.2 58.8 374.7 58.3C375 58.1 375.1 57.7 375.4 57.4C375.5 57.5 375.7 57.6 375.7 57.7C376.4 57.2 376.8 56.8 377.2 56.4Z" fill="white"/>
<path d="M382.4 1.7C382.7 1.4 383.3 1.00001 383.9 0.600009C384 0.500009 384.2 0.500009 384.3 0.600009C385.6 1.30001 386.9 1.9 388.1 2.7C388.7 3 389.1 3.9 389.7 3.9C391.2 3.9 390.8 5.4 391.5 6C391.6 6.1 391.4 6.7 391.2 7C390.4 7.8 389.6 8.60001 388.8 9.30001C388.7 9.40001 388.4 9.4 388.2 9.4C387.7 9.4 387.1 9.30001 386.5 9.30001C386.3 8.80001 386 8.3 385.7 7.7C385.6 7.7 385.5 7.80001 385.4 7.80001C385.3 8.10001 385.3 8.30001 385.2 8.60001C385.1 8.60001 384.9 8.60001 384.8 8.60001C384.8 8.30001 385 7.90001 384.9 7.60001C384.8 7.20001 384.6 6.80001 384.3 6.30001C384.3 6.20001 384.4 5.9 384.5 5.7C384.1 5.7 383.8 5.70001 383.6 5.60001C383.5 5.60001 383.7 5.1 383.6 4.9C383.3 3.7 382.9 2.8 382.4 1.7Z" fill="white"/>
<path d="M436.3 12.8C435.9 11.6 435.7 10.6 435.3 9.60001C435.1 9.10001 434.3 8.90001 434.5 8.10001C434.5 8.00001 434 7.8 433.8 7.7C433.8 7.4 433.9 7.19999 433.9 6.89999C433.6 5.89999 433.8 4.7 433.1 3.7C432.9 3.4 433.1 2.79999 433.2 2.39999C433.6 2.49999 434 2.50001 434.3 2.60001C434.4 2.60001 434.5 2.8 434.6 2.7C436.1 2 435.9 3.50001 436.5 4.10001C436.8 4.50001 436.9 4.99999 437.2 5.39999C437.8 6.19999 438.4 6.99999 438.9 7.89999C439 8.09999 438.9 8.5 438.9 8.8C439 9.9 439.1 10.9 439.2 12C439.3 12.7 438.8 12.9 438.2 12.8C437.4 12.7 436.7 12.8 436.3 12.8Z" fill="white"/>
<path d="M507.5 48.2C507.8 48.2 508.2 48.2 508.6 48.2C508.2 47.9 508 47.7 507.7 47.5C507.9 47.3 508.2 47 508.4 46.7C508.6 46.4 508.8 46 509 45.7C509.4 46.1 510.9 45.9 511.3 45.5C511.5 45.3 511.7 45.2 511.9 45.1C512.4 44.8 513.4 45.2 513.5 44.2C513.8 44.2 514.1 44.3 514.4 44.3C515.2 44.4 515.7 44.9 515.9 45.6C516.1 46.4 515.4 48.4 514.6 48.8C514.4 48.9 514.2 48.7 514 48.7C513.6 48.5 513.2 48.3 512.8 48C512.7 48.1 512.7 48.3 512.6 48.4C512.9 48.5 513.2 48.7 513.4 48.8C511.4 48.9 509.8 49.5 508.8 51.2C507.3 50.7 507.6 49.4 507.5 48.2Z" fill="white"/>
<path d="M494.2 61.7C493.9 61.5 493.5 61.4 493 61.1C493.8 60.9 494.3 60.8 495.2 60.6C494.5 60.5 494.2 60.4 493.9 60.4C493.9 60.3 493.9 60.2 493.8 60.1C494.3 59.9 494.9 59.8 495.4 59.6C495.4 59.7 495.5 59.8 495.5 59.9C495.7 59.4 496 58.9 496.3 58.3C496.6 58.7 496.8 58.9 497 59.2C497.1 58.5 497.2 57.7 497.2 57.2C498 57 498.5 56.8 499.1 56.7C499.5 56.7 500 56.8 500.4 56.9C500.2 57.3 500.1 57.7 499.9 58.2C499.5 57.9 499.3 57.7 499.1 57.6C498.3 59.1 497.3 60.5 495.2 60.4C495.3 60.8 495.4 61.1 495.4 61.2C495 61.5 494.7 61.8 494.4 62C494.4 61.8 494.3 61.8 494.2 61.7Z" fill="white"/>
<path d="M467.2 85.2C466.7 87.1 465 88.5 463 88.6C462.3 87.5 463.9 87.5 464 86.7C464.2 86.9 464.4 87.1 464.4 87.1C464.9 86.5 465.6 86 465.6 85.4C465.6 84.2 466.2 84.2 467 84.4C467 84.6 467.1 84.9 467.2 85.2Z" fill="white"/>
<path d="M485.9 68.1C486.4 68.4 486.5 68.7 486 69.1C485.6 69.4 485.3 69.8 484.9 70.2C484.9 70.2 484.9 70 484.8 69.9C484.4 70.4 484.1 70.9 483.7 71.4C483.3 71.1 482.9 70.9 482.5 70.6C482.5 70.5 482.5 70.4 482.5 70.3C483.1 69.3 483.7 68.3 484.3 67.3C484.5 67.4 484.7 67.6 484.9 67.7C485.2 67.9 485.6 68 485.9 68.1Z" fill="white"/>
<path d="M459.3 91.5C460.4 90.4 461.2 89.4 462.2 88.4C462.4 89.1 462.7 89.7 462.6 90.3C462.5 90.7 461.8 90.9 461.3 91.4C461.3 91.4 461 91.3 460.7 91.2L460.6 91.3C460.9 91.4 461.1 91.6 461.4 91.7C461.4 91.8 461.3 91.9 461.3 91.9C460.8 91.7 460.3 91.6 459.3 91.5Z" fill="white"/>
<path d="M474.4 79C473.9 79.9 473.4 80.6 472.9 81.4C472.3 81.3 471.5 81.2 470.8 81.1C470.8 80.9 470.8 80.8 470.8 80.6C471.5 80.5 472.2 80.4 472.8 80.3C472.4 79.1 473 78 474 78.1C473.7 78.3 473.4 78.4 473.1 78.7C473.7 78.8 474.1 78.9 474.4 79Z" fill="white"/>
<path d="M295.5 36.9C295.7 36.4 296.1 35.9 296.1 35.4C296.2 34.7 296.6 34.7 297.1 34.7C297.3 34.8 297.6 34.9 297.8 34.9C297.6 35.6 297.6 36.4 297.2 36.9C296.7 37.7 296 37.5 295.5 36.9Z" fill="white"/>
<path d="M475.8 77.8C475.7 77.4 475.7 77.1 475.6 76.7C475.7 76.1 477.3 76.4 476.6 75.2C477.1 74.8 477.7 74.5 478.3 74.1C478.5 75.1 478.5 75.1 475.8 77.8Z" fill="white"/>
<path d="M468.1 83.7C468.6 83.3 469 82.9 469.5 82.5C469.4 82.4 469.2 82.2 468.9 81.9C469.2 81.7 469.5 81.6 469.7 81.4C470 81.8 470.4 82.1 470.6 82.4C470.3 83 470 83.5 469.7 84C469.4 84 469.1 83.9 468.7 83.9C468.5 83.9 468.3 83.8 468.1 83.7Z" fill="white"/>
<path d="M500.7 54.7C501.4 54.5 502.1 54.2 502.8 53.9C502.9 54.3 503.1 54.7 503.3 55.3C502.7 55.2 502.3 55.1 501.7 55C502.1 55.3 502.4 55.5 502.7 55.6C502.3 56 502 56.3 501.7 56.7C501.5 56.2 501.3 55.6 501.1 55C500.9 54.9 500.8 54.8 500.7 54.7Z" fill="white"/>
<path d="M505.2 51.6C505.5 51.9 506 52.1 506 52.4C506 53 505.8 53.7 505.6 54.3C505.6 54.4 505.1 54.4 504.9 54.3C504.6 54.1 504 54 504.3 53.3C504.6 52.7 504.8 52.2 505.2 51.6Z" fill="white"/>
<path d="M487.7 66.6C487.5 66.4 487.3 66.2 487.1 66C488 65.5 488.8 65.2 489.6 64.7C489.7 64.9 489.9 65.2 489.9 65.2C489.3 66 488.8 66.7 488.4 67.2C488.1 66.4 488.1 66.4 487.7 66.6Z" fill="white"/>
<path d="M480.6 72.5C480.5 73 480.4 73.4 480.3 73.9C479.9 72.7 478.9 73.3 477.9 73.1C478.8 72.8 478.8 71.4 480 72.4C480.1 72 480.2 71.8 480.3 71.4C480.5 71.7 480.6 71.9 480.8 72.1C480.7 72.3 480.6 72.4 480.6 72.5Z" fill="white"/>
<path d="M468.1 83.7C468.3 83.8 468.5 83.9 468.7 84C468.6 84.2 468.5 84.5 468.3 84.7C468 85.1 467.8 85.6 467.2 85.1C467.1 84.8 467.1 84.6 467 84.3C467 84.1 466.9 84 467 83.8C467.1 83.5 467.3 83.2 467.4 82.9C467.6 83.2 467.8 83.5 468.1 83.7Z" fill="white"/>
<path d="M494.2 61.7C494.3 61.8 494.4 61.8 494.5 61.9C494.4 62.6 493.3 63.3 492.6 63C492.3 62.9 492 62.9 491.7 62.8C491.9 62.4 492.1 62 492.3 61.6C492.3 61.6 492.4 61.6 492.5 61.6C492.5 61.9 492.5 62.1 492.5 62.2C493 62 493.6 61.9 494.2 61.7Z" fill="white"/>
<path d="M507.2 51.7C507.2 51.4 507.2 51.2 507.2 51C508 51.4 508 51.7 506.8 52.9C506.4 52.4 505.9 51.9 505.4 51.3C505.6 51.2 505.9 51 506.2 50.9C506.4 51 506.7 51.3 507.2 51.7Z" fill="white"/>
<path d="M459.3 92.8C458.6 93.6 458 94.3 457.3 95.1C456.8 93.3 456.8 93.3 459.3 92.8Z" fill="white"/>
<path d="M491.6 62.8C491.5 63.4 491.5 63.9 491.4 64.6C491.3 64.7 490.9 64.8 490.6 64.9C490 64.5 490.1 64.2 490.6 63.7C490.8 63.5 490.5 62.8 490.5 62.5C490.8 62.6 491.2 62.8 491.6 62.8Z" fill="white"/>
<path d="M485.9 68.1C485.6 68 485.3 67.8 484.9 67.7C485.3 67 485.5 67 486.4 67.6C486.8 67.3 487.2 66.9 487.6 66.6C487.6 67.5 486.6 68.4 485.9 68.1Z" fill="white"/>
<path d="M480.6 72.5C480.6 72.4 480.7 72.3 480.7 72.2C481.1 71.8 481.4 71.4 481.8 71C482 70.8 482.3 70.5 482.5 70.3C482.5 70.4 482.5 70.5 482.5 70.6C482.6 70.9 482.8 71.2 483 71.7C482.2 71.9 481.4 72.2 480.6 72.5Z" fill="white"/>
<path d="M422.8 71.3C422.7 71.4 422.6 71.4 422.6 71.5C422.6 71.4 422.7 71.3 422.8 71.3Z" fill="white"/>
<path d="M377.9 57.5V57.4C378 57.4 378.1 57.4 378.2 57.4C378.1 57.4 378 57.5 377.9 57.5Z" fill="white"/>
<path d="M377.4 56.6H377.5V56.7L377.4 56.6Z" fill="white"/>
<path d="M377.4 56.7C377.3 56.7 377.3 56.7 377.3 56.6H377.4C377.4 56.6 377.5 56.7 377.4 56.7Z" fill="white"/>
</svg>
